<svg xmlns="http://www.w3.org/2000/svg" viewBox="0 0 833 230"><g id="The_real_layer3" data-name="The real layer3"><path d="M303.32,113.76H291l-1.46,3.38a7.48,7.48,0,0,0-.71,2.79,2.31,2.31,0,0,0,1.17,2.15,9.86,9.86,0,0,0,3.41.62v1H281.9v-1a5.2,5.2,0,0,0,3.07-1.54,20.91,20.91,0,0,0,3-5.25l12.43-27.73h.49l12.53,28.5c1.19,2.7,2.18,4.4,2.94,5.09a4,4,0,0,0,2.47.93v1H302v-1h.69a5.31,5.31,0,0,0,2.84-.56,1.38,1.38,0,0,0,.57-1.18,2.92,2.92,0,0,0-.16-.95,20.18,20.18,0,0,0-.77-1.92Zm-.87-1.9-5.18-12-5.33,12Z" style="fill:#fff;fill-rule:evenodd"/><path d="M340.09,99.67v18.76c0,1.83.17,3,.52,3.43a3,3,0,0,0,2.07.85v.92h-9.76v-3.2a12.48,12.48,0,0,1-3.44,3,8,8,0,0,1-3.84.92,5.74,5.74,0,0,1-3.61-1.23,6.2,6.2,0,0,1-2.1-2.92,21.39,21.39,0,0,1-.54-5.82v-9.5q0-2.72-.51-3.39a3,3,0,0,0-2.08-.87v-1h9.76v16.38a14.44,14.44,0,0,0,.23,3.3,2.37,2.37,0,0,0,.77,1.13,2,2,0,0,0,1.23.39,3,3,0,0,0,1.67-.49,10.61,10.61,0,0,0,2.46-2.69V104.88q0-2.72-.51-3.39a3,3,0,0,0-2.08-.87v-1Z" style="fill:#fff"/><path d="M359.45,99l.38,8.17H359a12.75,12.75,0,0,0-3.25-5,5.32,5.32,0,0,0-3.33-1.33,2.51,2.51,0,0,0-1.8.72,2.14,2.14,0,0,0-.74,1.61,2.1,2.1,0,0,0,.51,1.33,25.08,25.08,0,0,0,4.59,3.62,18.15,18.15,0,0,1,4.94,4.33,6.84,6.84,0,0,1,1.21,4,8.37,8.37,0,0,1-1,3.92,7.11,7.11,0,0,1-2.82,3,8.06,8.06,0,0,1-4,1,14.13,14.13,0,0,1-4.59-1.07,3.81,3.81,0,0,0-1.05-.29c-.56,0-1,.43-1.41,1.28h-.84l-.41-8.61h.87a11.24,11.24,0,0,0,3.15,5.08,6.1,6.1,0,0,0,3.82,1.69,2.79,2.79,0,0,0,2-.74,2.53,2.53,0,0,0,.79-1.85,3.19,3.19,0,0,0-.77-2.13,20.48,20.48,0,0,0-3.43-2.71,27.09,27.09,0,0,1-5.08-4.15,7.27,7.27,0,0,1-1.69-4.64,7.52,7.52,0,0,1,1.9-5A6.88,6.88,0,0,1,352,99a8.07,8.07,0,0,1,3.77.94,2.48,2.48,0,0,0,1.13.39,1.37,1.37,0,0,0,.74-.18,5.21,5.21,0,0,0,.9-1.1Z" style="fill:#fff"/><path d="M372.14,90.93v8.76h5.69v2.54h-5.69V117a12.17,12.17,0,0,0,.18,2.69,2,2,0,0,0,.69,1,1.53,1.53,0,0,0,.9.36c1.1,0,2.16-.85,3.15-2.54l.77.56q-2.08,4.92-6.74,4.92a6.07,6.07,0,0,1-3.87-1.25,5.69,5.69,0,0,1-2-2.85,24.06,24.06,0,0,1-.26-4.71V102.23h-3.13v-.9a32.79,32.79,0,0,0,5.49-4.79,28.76,28.76,0,0,0,4-5.61Z" style="fill:#fff"/><path d="M389.52,99.67v5.44a17.17,17.17,0,0,1,4.18-4.92A6.16,6.16,0,0,1,397.16,99a3,3,0,0,1,2.28.89,3.39,3.39,0,0,1,.87,2.49,3.92,3.92,0,0,1-.84,2.67,2.56,2.56,0,0,1-2,.94,3.48,3.48,0,0,1-2.36-.87,15.05,15.05,0,0,0-1.18-1,1.07,1.07,0,0,0-.59-.16,2.16,2.16,0,0,0-1.41.57,5.34,5.34,0,0,0-1.59,2.48,17.67,17.67,0,0,0-.82,5.49V118l0,1.43a5.88,5.88,0,0,0,.18,1.87,2.12,2.12,0,0,0,.9,1,5.68,5.68,0,0,0,2,.38v.92H379.74v-.92a2.79,2.79,0,0,0,2.1-.85c.37-.49.56-1.78.56-3.86V104.75a9.76,9.76,0,0,0-.21-2.62,2,2,0,0,0-.74-1,4,4,0,0,0-1.71-.46v-1Z" style="fill:#fff"/><path d="M413.47,120.11c-2.92,2.59-5.54,3.87-7.86,3.87a4.65,4.65,0,0,1-3.41-1.33,4.56,4.56,0,0,1-1.36-3.38,6.57,6.57,0,0,1,2.36-4.92q2.35-2.2,10.27-5.85v-2.4a11.28,11.28,0,0,0-.3-3.41,2.59,2.59,0,0,0-1.11-1.23,3.26,3.26,0,0,0-1.84-.54,4.76,4.76,0,0,0-2.74.74,1.31,1.31,0,0,0-.67,1.08,2.22,2.22,0,0,0,.72,1.33,3.3,3.3,0,0,1,1,2.13,2.81,2.81,0,0,1-.95,2.15,3.38,3.38,0,0,1-2.43.87,4,4,0,0,1-2.72-1,3,3,0,0,1-1.07-2.28,5.23,5.23,0,0,1,1.46-3.51,9.15,9.15,0,0,1,4.07-2.59,16.6,16.6,0,0,1,5.44-.9,8.9,8.9,0,0,1,5.38,1.46,6.69,6.69,0,0,1,2.58,3.13,20.28,20.28,0,0,1,.36,4.94v9.31a9.43,9.43,0,0,0,.13,2.07,1.15,1.15,0,0,0,.39.62.91.91,0,0,0,.58.2c.45,0,.9-.31,1.36-.94l.77.61a9.33,9.33,0,0,1-2.66,2.77,5.79,5.79,0,0,1-3.1.84,4.93,4.93,0,0,1-3.21-.94,4.42,4.42,0,0,1-1.41-2.93m0-1.87v-8a15,15,0,0,0-4.61,3.9,4.77,4.77,0,0,0-1,2.79,2.92,2.92,0,0,0,.85,2.08,2.31,2.31,0,0,0,1.79.69,4.93,4.93,0,0,0,3-1.44" style="fill:#fff;fill-rule:evenodd"/><path d="M434.29,88.9v29.78c0,1.69.2,2.77.6,3.25a3.19,3.19,0,0,0,2.3.79v.93H424.25v-.93a3.13,3.13,0,0,0,2.36-.92q.51-.58.51-3.12V93.87c0-1.67-.2-2.74-.59-3.2a3.11,3.11,0,0,0-2.28-.82V88.9Z" style="fill:#fff"/><path d="M445.26,88.07a4,4,0,1,1-2.79,1.18,3.78,3.78,0,0,1,2.79-1.18m3.59,11.6v19c0,1.69.19,2.78.59,3.26a3.25,3.25,0,0,0,2.31.79v.92H438.81v-.92a3.11,3.11,0,0,0,2.35-.92c.34-.39.52-1.44.52-3.13v-14c0-1.69-.2-2.77-.59-3.23a3.15,3.15,0,0,0-2.28-.82v-1Z" style="fill:#fff;fill-rule:evenodd"/><path d="M465.73,120.11c-2.93,2.59-5.55,3.87-7.87,3.87a4.65,4.65,0,0,1-3.41-1.33,4.6,4.6,0,0,1-1.36-3.38,6.57,6.57,0,0,1,2.36-4.92q2.35-2.2,10.28-5.85v-2.4a11.16,11.16,0,0,0-.31-3.41,2.62,2.62,0,0,0-1.1-1.23,3.31,3.31,0,0,0-1.85-.54,4.76,4.76,0,0,0-2.74.74,1.31,1.31,0,0,0-.67,1.08,2.22,2.22,0,0,0,.72,1.33,3.31,3.31,0,0,1,1,2.13,2.85,2.85,0,0,1-.95,2.15,3.42,3.42,0,0,1-2.44.87,3.93,3.93,0,0,1-2.71-1,3,3,0,0,1-1.08-2.28,5.28,5.28,0,0,1,1.46-3.51,9.13,9.13,0,0,1,4.08-2.59,16.54,16.54,0,0,1,5.43-.9,8.9,8.9,0,0,1,5.38,1.46,6.78,6.78,0,0,1,2.59,3.13,20.28,20.28,0,0,1,.36,4.94v9.31a10.45,10.45,0,0,0,.12,2.07,1.28,1.28,0,0,0,.39.62.94.94,0,0,0,.59.2c.44,0,.89-.31,1.35-.94l.77.61a9.33,9.33,0,0,1-2.66,2.77,5.76,5.76,0,0,1-3.1.84,4.93,4.93,0,0,1-3.21-.94,4.45,4.45,0,0,1-1.4-2.93m0-1.87v-8a14.88,14.88,0,0,0-4.62,3.9,4.75,4.75,0,0,0-1,2.79A3,3,0,0,0,461,119a2.34,2.34,0,0,0,1.8.69,4.93,4.93,0,0,0,3-1.44" style="fill:#fff;fill-rule:evenodd"/><path d="M486.43,99.67v3.11a13.87,13.87,0,0,1,3.54-2.9,7.43,7.43,0,0,1,3.64-.92,5.79,5.79,0,0,1,3.87,1.3,6.26,6.26,0,0,1,2,3.21,24.94,24.94,0,0,1,.41,5.61v9.33a7.41,7.41,0,0,0,.48,3.45,3,3,0,0,0,2.11.85v.92H490.41v-.92a2.5,2.5,0,0,0,1.94-1.13,7.19,7.19,0,0,0,.41-3.17V107.75a17,17,0,0,0-.23-3.72,2.22,2.22,0,0,0-.79-1.18,1.86,1.86,0,0,0-1.2-.43c-1.48,0-2.84,1-4.11,3.15v12.84a7.2,7.2,0,0,0,.49,3.4,2.6,2.6,0,0,0,1.87.9v.92H476.67v-.92a3,3,0,0,0,2.16-1c.28-.38.43-1.49.43-3.33V104.88q0-2.72-.51-3.39a3,3,0,0,0-2.08-.87v-1Z" style="fill:#fff"/><path d="M549.72,88.1v12.25h-1a15.6,15.6,0,0,0-5.15-7.63,12.11,12.11,0,0,0-7.51-2.62,9.69,9.69,0,0,0-6.48,2.2A11.82,11.82,0,0,0,526,98.41a30.09,30.09,0,0,0-1.07,8,29.71,29.71,0,0,0,1.17,8.77,10,10,0,0,0,3.8,5.53,11,11,0,0,0,6.25,1.77,12.57,12.57,0,0,0,2.56-.26,20.14,20.14,0,0,0,2.72-.79v-7.23a7.56,7.56,0,0,0-.28-2.64,2.6,2.6,0,0,0-1.18-1.1,4.36,4.36,0,0,0-2.13-.49h-.9v-1h16.89v1a7.42,7.42,0,0,0-2.69.54,2.58,2.58,0,0,0-1.15,1.31,7.05,7.05,0,0,0-.23,2.38v7.23a34,34,0,0,1-7,2.23,35.66,35.66,0,0,1-7.45.76,22,22,0,0,1-8.23-1.33,21.17,21.17,0,0,1-5.77-3.53,16.9,16.9,0,0,1-3.89-4.95,17.22,17.22,0,0,1-1.8-7.92,17.84,17.84,0,0,1,5.51-13.24A19,19,0,0,1,535,88.08a24.41,24.41,0,0,1,4.66.41,23.28,23.28,0,0,1,3.64,1.18,15.67,15.67,0,0,0,3,1,2,2,0,0,0,1.33-.52,4.75,4.75,0,0,0,1.13-2Z" style="fill:#fff"/><path d="M566.35,99a11.2,11.2,0,0,1,5.82,1.61,10.28,10.28,0,0,1,4.07,4.59,15,15,0,0,1,1.41,6.51,13.74,13.74,0,0,1-2.59,8.53,10.19,10.19,0,0,1-8.63,4.15,9.87,9.87,0,0,1-8.33-3.79,14,14,0,0,1-2.92-8.79,14.2,14.2,0,0,1,3-9,9.84,9.84,0,0,1,8.2-3.84m.1,1.82a3,3,0,0,0-2.25,1c-.62.65-1,1.94-1.23,3.89s-.29,4.62-.29,8.07a33.09,33.09,0,0,0,.37,5.13,4.9,4.9,0,0,0,1.2,2.77,2.84,2.84,0,0,0,2.1.94,2.87,2.87,0,0,0,1.92-.64,4.26,4.26,0,0,0,1.33-2.43,57.91,57.91,0,0,0,.52-9.84,24.38,24.38,0,0,0-.49-6,4.58,4.58,0,0,0-1.44-2.39,2.71,2.71,0,0,0-1.74-.53" style="fill:#fff;fill-rule:evenodd"/><path d="M589,124.36l-8.07-18.58a18.59,18.59,0,0,0-2.28-4.25,3.08,3.08,0,0,0-1.74-.9v-.95h12.73v.95a2.29,2.29,0,0,0-1.63.44,1.73,1.73,0,0,0-.62,1.33,11.18,11.18,0,0,0,1.13,3.56l3.94,9,3.15-7.77a14.88,14.88,0,0,0,1.36-4.71,1.55,1.55,0,0,0-.59-1.28,3.24,3.24,0,0,0-2-.57v-.95h7.84v.95a3.22,3.22,0,0,0-1.84.85,15.67,15.67,0,0,0-2.16,4.07l-8,18.81Z" style="fill:#fff"/><path d="M621,110.79H607.86a12.43,12.43,0,0,0,2.53,7.54,5.37,5.37,0,0,0,4.26,2.12,4.92,4.92,0,0,0,2.79-.84,11,11,0,0,0,2.69-3.1l.87.56a14.54,14.54,0,0,1-4.3,5.64,9.34,9.34,0,0,1-5.46,1.64,9.08,9.08,0,0,1-8.07-4.1,14.48,14.48,0,0,1-2.21-8.2q0-6,3.23-9.53A10,10,0,0,1,611.8,99a8.19,8.19,0,0,1,6.31,3c1.79,2,2.76,4.93,2.89,8.84m-6.3-1.71a23,23,0,0,0-.46-5.67,4.59,4.59,0,0,0-1.38-2.33,2.18,2.18,0,0,0-1.44-.46,2.5,2.5,0,0,0-2.18,1.31,11.18,11.18,0,0,0-1.51,6.25v.9Z" style="fill:#fff;fill-rule:evenodd"/><path d="M632.37,99.67v5.44a17.17,17.17,0,0,1,4.18-4.92A6.11,6.11,0,0,1,640,99a3,3,0,0,1,2.27.89,3.34,3.34,0,0,1,.87,2.49,3.92,3.92,0,0,1-.84,2.67,2.55,2.55,0,0,1-2,.94,3.45,3.45,0,0,1-2.35-.87c-.67-.58-1.07-.9-1.18-1a1.1,1.1,0,0,0-.6-.16,2.12,2.12,0,0,0-1.4.57,5.34,5.34,0,0,0-1.59,2.48,17.38,17.38,0,0,0-.82,5.49V118l0,1.43a6,6,0,0,0,.17,1.87,2.17,2.17,0,0,0,.9,1,5.7,5.7,0,0,0,2,.38v.92H622.58v-.92a2.79,2.79,0,0,0,2.1-.85c.38-.49.56-1.78.56-3.86V104.75a10.4,10.4,0,0,0-.2-2.62,2.1,2.1,0,0,0-.74-1,4.1,4.1,0,0,0-1.72-.46v-1Z" style="fill:#fff"/><path d="M654.46,99.67v3.11a13.84,13.84,0,0,1,3.53-2.9,7.47,7.47,0,0,1,3.65-.92,5.74,5.74,0,0,1,3.86,1.3,6.14,6.14,0,0,1,2,3.21,24.34,24.34,0,0,1,.41,5.61v9.33c0,1.84.16,3,.49,3.45a3,3,0,0,0,2.1.85v.92H658.43v-.92a2.51,2.51,0,0,0,2-1.13,7.35,7.35,0,0,0,.41-3.17V107.75a17.72,17.72,0,0,0-.23-3.72,2.22,2.22,0,0,0-.79-1.18,1.91,1.91,0,0,0-1.21-.43q-2.2,0-4.1,3.15v12.84a7.2,7.2,0,0,0,.49,3.4,2.58,2.58,0,0,0,1.87.9v.92H644.7v-.92a3,3,0,0,0,2.15-1c.29-.38.43-1.49.44-3.33V104.88c0-1.81-.18-2.94-.52-3.39a3,3,0,0,0-2.07-.87v-1Z" style="fill:#fff"/><path d="M682.22,99.67v3.16a13.52,13.52,0,0,1,3.64-3,8,8,0,0,1,3.7-.87,6.62,6.62,0,0,1,3.86,1.07,6.72,6.72,0,0,1,2.41,3.28,15.27,15.27,0,0,1,3.92-3.33,8.24,8.24,0,0,1,4-1,6.16,6.16,0,0,1,3.94,1.15,5.67,5.67,0,0,1,2.05,2.9,18.74,18.74,0,0,1,.59,5.58v9.82c0,1.84.17,3,.49,3.43a3.12,3.12,0,0,0,2.1.87v.92H700.49v-.92a2.74,2.74,0,0,0,2.16-1.13,6.9,6.9,0,0,0,.46-3.17V108.1a19.06,19.06,0,0,0-.26-4.07,2.29,2.29,0,0,0-.82-1.28,2,2,0,0,0-1.28-.44,3.82,3.82,0,0,0-2.23.82,10.27,10.27,0,0,0-2.28,2.41v12.87a7.29,7.29,0,0,0,.44,3.25,2.65,2.65,0,0,0,2.25,1v.92h-12.4v-.92a2.66,2.66,0,0,0,1.56-.49,2.09,2.09,0,0,0,.77-1.07,11.75,11.75,0,0,0,.2-2.74V108.1a18.86,18.86,0,0,0-.25-4.07,2.46,2.46,0,0,0-.87-1.28,2,2,0,0,0-1.28-.46,3.4,3.4,0,0,0-1.87.54,10.41,10.41,0,0,0-2.57,2.71v12.87a7.55,7.55,0,0,0,.49,3.35,2.64,2.64,0,0,0,2.1.95v.92H672.46v-.92a3,3,0,0,0,2.15-1c.29-.38.44-1.49.44-3.33V104.88q0-2.72-.51-3.39a3,3,0,0,0-2.08-.87v-1Z" style="fill:#fff"/><path d="M734.19,110.79H721.05a12.37,12.37,0,0,0,2.54,7.54,5.34,5.34,0,0,0,4.25,2.12,4.9,4.9,0,0,0,2.79-.84,11,11,0,0,0,2.69-3.1l.87.56a14.54,14.54,0,0,1-4.3,5.64,9.34,9.34,0,0,1-5.46,1.64,9.09,9.09,0,0,1-8.07-4.1,14.48,14.48,0,0,1-2.2-8.2q0-6,3.23-9.53A10,10,0,0,1,725,99a8.18,8.18,0,0,1,6.3,3c1.79,2,2.76,4.93,2.89,8.84m-6.3-1.71a23,23,0,0,0-.46-5.67,4.59,4.59,0,0,0-1.38-2.33,2.18,2.18,0,0,0-1.44-.46,2.51,2.51,0,0,0-2.18,1.31,11.18,11.18,0,0,0-1.51,6.25v.9Z" style="fill:#fff;fill-rule:evenodd"/><path d="M744.88,99.67v3.11a13.7,13.7,0,0,1,3.54-2.9,7.43,7.43,0,0,1,3.64-.92,5.79,5.79,0,0,1,3.87,1.3,6.2,6.2,0,0,1,2.05,3.21,24.94,24.94,0,0,1,.41,5.61v9.33a7.41,7.41,0,0,0,.48,3.45,3,3,0,0,0,2.11.85v.92H748.85v-.92a2.51,2.51,0,0,0,1.95-1.13,7.35,7.35,0,0,0,.41-3.17V107.75A17,17,0,0,0,751,104a2.22,2.22,0,0,0-.79-1.18,1.87,1.87,0,0,0-1.21-.43c-1.47,0-2.83,1-4.1,3.15v12.84a7.2,7.2,0,0,0,.49,3.4,2.58,2.58,0,0,0,1.87.9v.92H735.12v-.92a3,3,0,0,0,2.15-1c.29-.38.44-1.49.44-3.33V104.88c0-1.81-.17-2.94-.52-3.39a3,3,0,0,0-2.07-.87v-1Z" style="fill:#fff"/><path d="M771.16,90.93v8.76h5.69v2.54h-5.69V117a11.36,11.36,0,0,0,.19,2.69,2,2,0,0,0,.69,1,1.53,1.53,0,0,0,.89.36c1.11,0,2.16-.85,3.16-2.54l.76.56c-1.38,3.28-3.63,4.92-6.73,4.92a6.1,6.1,0,0,1-3.88-1.25,5.72,5.72,0,0,1-2-2.85,23.23,23.23,0,0,1-.26-4.71V102.23h-3.13v-.9a32.79,32.79,0,0,0,5.49-4.79,28.76,28.76,0,0,0,4-5.61Z" style="fill:#fff"/><path d="M92.37,157.82a1.58,1.58,0,0,1-.67.66" style="fill:#fff"/><path d="M98.36,110.91a1.27,1.27,0,1,0-1.25-1.27,1.26,1.26,0,0,0,1.25,1.27" style="fill:#fff"/><path d="M156.5,57.91v0H111.29v0h0l0,36.52c0,3.51,1.49,6.6,3.55,7.55l17.39,10.38a2.11,2.11,0,0,0,3,.16L152.92,102c2.06-1,3.55-4,3.55-7.55l0-36.52ZM126.32,68.48h-3.91V59.14h3.91Zm-2.84,3.26.55-.59-.35-.64.74.08.44-.77.43.77.74-.08-.35.64.56.59-.71.12v.8l-.67-.5-.67.5v-.8Zm-10.92,2.75h4.75v8.87h-4.75Zm.79-4,.73.08.44-.77.43.77.74-.08-.35.64.56.59-.71.12v.8l-.67-.5-.67.5v-.8l-.71-.12.55-.59Zm5.36,9,.73.08.44-.78.43.78.74-.08-.35.63.56.6-.71.12v.79l-.67-.49-.67.49v-.79l-.71-.12.55-.6Zm3.15-7.14c0-.22-.34-.3-.48-.3-.42,0-.59.7-.94.72s-.45,0-.45-.28.54-.42.74-.62c-2.93,0-3,1.33-3.44,1.33-.77,0,.64-1.41,1-1.82-.6-.08-.94-.82-1.59-1.2.31-.43.48-.24.86.06,0-.3.23-.65.91-.65,1.32,0,1,1.25,1.16,1.25s0-1.25.86-1.25c1.3,0,2.93,3.34,1.46,3.34-.64,0-.13-.48-.14-.58m-3.36-9.76.55-.6-.34-.63.73.08.44-.76.43.76.74-.08-.35.63.56.6-.71.12v.79l-.67-.49-.67.49v-.79Zm-1.19,5.84h-4.75V59.14h4.75Zm9,38.89-10.82-6.46c-1.81-1.24-2.7-3.4-2.94-6V84.61h13.76Zm-3.91-32.88h3.91v8.87h-3.91Zm17.84,33.61-5,3h-.09a2.13,2.13,0,0,1-1.31.46,2.09,2.09,0,0,1-1.34-.48l-5-3V84.61h12.7Zm0-24.73h-12.7V59.14h12.7Zm15,11.51c-.24,2.63-1.13,4.79-2.93,6l-10.82,6.46V84.61h13.75Zm0-11.51H141.48V59.14h13.75Z" style="fill:#fff"/><path d="M125.59,93c-.07-.14-1.73.55-1.26.51a5,5,0,0,1,1.38-1.86c-.07-.58-.81-.05-1.59.35,2.58-3.68.93-2.17-.51-1.91,2.29-2.47,1.69-2.43,0-1.66,1.33-1.06,1.61-2.32,1.41-2.68-1.25,1.66-2.4,1.4-2.4,2.94a6.16,6.16,0,0,1-.89,3.25c-.67.73-.16-2.72-1.92-2.72-.56,0-1.9,0-2.3.64.36,0,.9.92.9,1.28s.33,1.37-.27,1.37-1.3-1.26-1.3-1.87,0-.47,0-1.34c0-1.46-2.38-3.51-3.35-3.51,0,1,1.33,1.26,1.33,2.55-.56,0-1.37-1-1.37-.4s.85.77.85,1.34-1-.21-1,.4.53.45.66,1c-.4-.11-.75-.06-.82.14s.12.41.41.57c-.13.13-.25.43-.25,1.29,0,2.88,1.81,4.22,3.14,4.22.94,0,.79-.66.91-1,0,.48.5-.25.5.6s-.91.51-.91,1.28c0,1,1.44,0,1.44,1.1a13.78,13.78,0,0,1-.17,1.88c0,.36,1.52-.5,1.43-.66.36.13.34,1.2,1,1.18.43,0,.53-1.1.87-1.19-.2,0,1.38,1,1.38.53,0-1.34-.56-.77-.56-1.69s1.87-.69,1.57-1.13-.41-.14-.61-.77c0,.11-1.46-2.14.31-1s2.08-2.84,2-3" style="fill:#fff"/><path d="M173.81,102.52a1.32,1.32,0,1,0-1.48-1.32,1.41,1.41,0,0,0,1.48,1.32" style="fill:#fff"/><path d="M167.8,106.09a1.32,1.32,0,1,0-1.49-1.31,1.41,1.41,0,0,0,1.49,1.31" style="fill:#fff"/><path d="M96.35,114.32A1.32,1.32,0,1,0,94.86,113a1.4,1.4,0,0,0,1.49,1.31" style="fill:#fff"/><path d="M101,114.72a1.32,1.32,0,1,0-1.49-1.31,1.4,1.4,0,0,0,1.49,1.31" style="fill:#fff"/><path d="M229.62,52.38a9.31,9.31,0,0,1,1.1,9.85c-.86-.08-.71-1.19-.86-1.83-1.58-2.93-2.84-6.67-1.42-10,1,.16.63,1.43,1.18,2" style="fill:#fff"/><path d="M40.85,55.94a14.16,14.16,0,0,0,0,6.28c-.39.39-.31-.4-.71-.32-3.07-2.22-1.65-6.59-2.44-9.69a.61.61,0,0,1,.79-.16,5.63,5.63,0,0,1,2.36,3.89" style="fill:#fff"/><path d="M236.4,56.2c.47.87-.39,1.74-1,2.14a2.05,2.05,0,0,1-2-.87,1.84,1.84,0,0,1,.95-2.07,2.05,2.05,0,0,1,2.05.8" style="fill:#fff"/><path d="M36.05,59.68a2.35,2.35,0,0,1-1,1.74c-.47,0-1.18,0-1.5-.39a1.48,1.48,0,0,1-.32-1.67,1.84,1.84,0,0,1,1.51-.72c.55.24,1.1.4,1.34,1" style="fill:#fff"/><path d="M239.48,61a1.85,1.85,0,0,1,0,1.27,1.8,1.8,0,0,1-2.13.72,2.18,2.18,0,0,1-.87-1.35,2.42,2.42,0,0,1,1.34-1.44,2.55,2.55,0,0,1,1.66.8" style="fill:#fff"/><path d="M235,61.11c.63.31.16,1.11.08,1.59-.39.39-.94,1-1.66.79-.39-.4-.86-.4-1-1a1.77,1.77,0,0,1,1.1-1.83,2,2,0,0,1,1.5.4" style="fill:#fff"/><path d="M229.23,62.3c0,.88.08,2-.95,2.15a1.49,1.49,0,0,1-1.81-1.11,1.88,1.88,0,0,1,1.18-1.91,2.17,2.17,0,0,1,1.58.87" style="fill:#fff"/><path d="M44.64,62.7c.24.79-.55,1.27-1,1.67A1.61,1.61,0,0,1,42,63.49c-.55-.55.16-1,.32-1.5a1.47,1.47,0,0,1,2.29.71" style="fill:#fff"/><path d="M39.91,62.94A1.63,1.63,0,0,1,39,64.45a1.44,1.44,0,0,1-1.58-.72,1.36,1.36,0,0,1,.71-1.83c.87-.32,1.42.48,1.74,1" style="fill:#fff"/><path d="M210.15,63.26A16.72,16.72,0,0,1,211.72,69c-.31,1.5.24,3.49-.87,4.52-1.1-.4-1.18-1.75-1.89-2.46-1.42-2.78-.16-6,.32-8.74.63-.24.63.56.87,1" style="fill:#fff"/><path d="M36.2,64.21c.24,1-.47,1.43-1,2a1.85,1.85,0,0,1-2-1.11,2,2,0,0,1,1-1.9,2,2,0,0,1,2,1" style="fill:#fff"/><path d="M222.6,66.52a11.42,11.42,0,0,1,.4,7.62l-.48.4c-1.1-2.15-2.68-4.13-3.23-6.43a10.59,10.59,0,0,1,1-4.53c.55-.4.87.08,1.1.56a3.17,3.17,0,0,0,1.26,2.38" style="fill:#fff"/><path d="M232.54,65.08A2.05,2.05,0,0,1,231.36,67a1.42,1.42,0,0,1-1.82-.95,1.73,1.73,0,0,1,.87-1.91c.87-.47,1.73.32,2.13,1" style="fill:#fff"/><path d="M40,67.55a1.7,1.7,0,0,1-1.19,1.51c-.63.48-1.1-.32-1.65-.56a1.85,1.85,0,0,1,0-1.82c.23-.48.79-.48,1.26-.64.71.4,1.42.72,1.58,1.51" style="fill:#fff"/><path d="M43.46,67.15c.31.8-.55,1.19-.87,1.59-1,.32-1.42-.4-1.81-.95-.16-.8.31-1.28.86-1.75,1-.24,1.42.4,1.82,1.11" style="fill:#fff"/><path d="M234.75,66.91c-.08,1-1.66,2.07-1.82,3.1a8,8,0,0,1-4.88,4.45,3.88,3.88,0,0,1-1.82,1c-.16-1.59,1.26-3,2.13-4.45a11.74,11.74,0,0,1,6.39-4.13" style="fill:#fff"/><path d="M38.41,70.25A28.41,28.41,0,0,0,41.64,74a.66.66,0,0,1-.55.8c-3.86-.24-6.46-4.21-8.36-7,.24-.87,1.26-.16,1.82-.24,1.34,1,2.83,1.35,3.86,2.7" style="fill:#fff"/><path d="M235.85,71.35c-.16,3.41-1.81,6.91-4.89,8.57-.87.32-1.82,1.2-2.68.64,1.66-3.41,4.18-6.19,6.94-9.21Z" style="fill:#fff"/><path d="M220.71,73.65a1.93,1.93,0,0,1-1.34,2.3c-.87.08-1.42-.63-1.81-1.26a1.65,1.65,0,0,1,1.1-1.75,1.32,1.32,0,0,1,1-.24c.47.16.7.55,1.1,1" style="fill:#fff"/><path d="M34.07,74.37a45.85,45.85,0,0,1,4.26,3.73c-1,.72-2.29.08-3.47.08-2.68-1-4.49-3.26-7.25-4.05.07-.88,1.1-.56,1.65-.8,1.74-.15,3.16.64,4.81,1" style="fill:#fff"/><path d="M118.52,50.87c-4.42-1.75-7.33,2.86-11.83,2.3-.55.32-.39.88-.71,1.28-.23.23-.63.08-.86-.09-.24-1.9-.87-3.65-1.11-5.48-.47-.79-.23-1.9-.63-2.7-2.52-6.9,6.15-1.66,7.89-5.71,1.5-3.5-2.92-3.89-4.26-6.35v-1c-1.26-1.27-2.6-1.66-3.39-3.33a11.48,11.48,0,0,0,.23-6.12c-.07-.48-.39-1.11-1.1-.87-1.5,2.06-2.6,3.73-4,5.72A42.47,42.47,0,0,0,94.08,25c-1.19-.16-2.29-1.35-3.63-.87a1.07,1.07,0,0,0,.24,1.19c.08,3.1,1.65,5.56,3.86,7.78l.24,1.19c-1.42,3.26-1,7-1.42,10.48-3.55,9.06-9.31,17.8-17.11,24.07-4.5,5.08-9.86,10-10.57,17-.23,1.12.16,2.47-.71,3.26a27,27,0,0,1-7.33-3.89C54,82.64,48.82,83,46.45,78.35c-.94-1.83.24-3.65,1.1-5,2.68-2.55,2.29-7.07.87-10.17-.31-.08-.39.32-.63.39-.24,4.7-3.94,7.95-2.52,13.11.31,1.51,1.1,2.46,1.5,3.89A13.56,13.56,0,0,1,45,80.18c-1.73-.24-3.47-1-5.28-.72-3.63,1.67-8.59-.39-11.51,2.94-.48.08-1.11.16-.95.87,1.74,0,3.39.48,5.13.4,2.76.48,4.57-1.83,6.46-2.86h.48c.78-.79,2.13-.32,3.15-.48,5,.56,8.83,2.94,12.93,5.41v.31c-1.58.72-3.39,1.19-5,2.07-1.81,1.35-3.86,3.09-4.41,5.32-1.26,2,.39,3.73,1.18,5.4.08.79.16,1.75.87,2.06,2.52-2.7.16-6,.55-9.13.63-2.38,2.84-3.49,5.13-4.13,4.49-1.9,7.73,1.75,11.35,3.81-.08,3.66.4,7.15-.39,10.73a10,10,0,0,1-3.71.55c-6.23.48-11.12,3.89-16.72,5.8-2.52.87-5.52.79-8,1.74,2,.56,4-.15,6.07-.23,7.73-1.12,13.64-7.07,22-6l.16.24a18.66,18.66,0,0,1-3.71,5.16c-.24-.87-.31-1.58-1.1-2.06a1.46,1.46,0,0,0-1.81.63,1.07,1.07,0,0,0,0,1.19,2.52,2.52,0,0,0,1.73,1.11c-.16.72-1,1-1.5,1.67-2.21,3.74-6.7,2.23-9.3,4.85-.4.55-1.82.87-1.19,1.74a11.84,11.84,0,0,0,8.13-2.06c2.92-3.26,6-6.35,8.91-9.45a9.48,9.48,0,0,1-1.74,7.23,9.18,9.18,0,0,0-2.13-1.2,1.94,1.94,0,0,0-1.41,1.59,4.6,4.6,0,0,0,1.17,1.59c-2.67,1.91-6.06,2.07-9.14,2.94a156.28,156.28,0,0,1-17.19,1.27c-2.76-.16-5.91.79-8.51,0-3,.56-6.23-.4-8.68,1.27-.31.4.08.8.08,1.19,3.63,2.39,8.6.48,12.7,1.19H60.8c2.29-.08,4.58-.16,6.39-1.19,4-2.3,6.23-6.43,8.28-10.48a16.09,16.09,0,0,0,1.65-4.76A6.88,6.88,0,0,1,83,102.81a36.47,36.47,0,0,1-1.34,12.07c-.48,2.54-2.13,5-1.11,7.7.24,1.27,1.58,1.27,2.61,1.43,9.54-.16,19.08-.55,29.17.16a23.43,23.43,0,0,0,5.36.8c.16-.24.71-.32.48-.8a3,3,0,0,0-1.9-2.22c-.15-.48-.86-.32-1.1-.64-5-2.85-11.12-1.35-17-1.27-3.08.32-6.15.88-8.76-.87-1.18-1.43-.31-6-.31-6,0-1.79,4.34-14.29,4.89-15.33a13.82,13.82,0,0,0,.47-3.65c.63-1.59.48-3.65.48-5.4.31-2.54,1.57-4.92,2.44-7.38.47-1.2.87-2.47,1.34-3.66.47-1.51.63-2.94,1.58-4.13,2.57,1.64,5.08,1.59,6.32,4.51l1.09,6.61c0,.4.31,1.19.86.72,2.06-1.35,1.43-4.37,1.43-6.43.47-2.47-1.26-3.66-2-5.8a9.65,9.65,0,0,1-1.46-2.3c-.31-1.74-4.13-2.94-3.27-5.09.48-1.83,1-3.49,2.68-4.53a.84.84,0,0,1,.4.57l.94-.67.1-6.64c2.56,0,6.37.32,9,.32.71.24,1.26.79,2,.88l.63-.88,6.39-1.24c-2.71.3-4.36-2.82-6.94-2.82" style="fill:#fff"/><path d="M125.46,53.67a3.06,3.06,0,0,0,.59-.11Z" style="fill:#fff"/><path d="M56.78,75.8a1.74,1.74,0,0,1-1.18,1.82c-.63-.23-1.1-.31-1.5-1-.31-.87.47-1.51,1.1-1.82.64.15,1.42.23,1.58,1" style="fill:#fff"/><path d="M51.66,75.8A1.73,1.73,0,0,1,52,77.62c-.55.48-1.42.88-1.89.24-.47-.47-.94-1-.55-1.66.55-.56,1.5-1,2.13-.4" style="fill:#fff"/><path d="M161.42,76.67l.06.12" style="fill:#fff"/><path d="M221.5,78c.31.87-.4,1.5-1,1.82-.79-.24-1.81-.39-1.81-1.43A1.52,1.52,0,0,1,221.5,78" style="fill:#fff"/><path d="M225.68,77.87c.23.39.79,1,.16,1.43a2.71,2.71,0,0,0-.79.63,1.52,1.52,0,0,1-1.89-1c-.16-.88.55-1.27,1.18-1.67.55-.16.94.24,1.34.56" style="fill:#fff"/><path d="M31.86,78.82a1.55,1.55,0,0,1-2.12,1,3.05,3.05,0,0,1-.63-1A1.45,1.45,0,0,1,30,77.47a1.89,1.89,0,0,1,1.89,1.35" style="fill:#fff"/><path d="M58.44,80.17c-.08.64-.79,1.2-1.34,1.51-.79.08-1.34-.56-1.74-1.11a1.6,1.6,0,0,1,1-1.59,1.76,1.76,0,0,1,2.13,1.19" style="fill:#fff"/><path d="M53.78,79.62A1.2,1.2,0,0,1,54,80.89c-.47.39-1.18,1.11-2,.63-.48-.4-1-.71-.87-1.5a3.51,3.51,0,0,1,1.19-1c.63-.16.94.24,1.41.56" style="fill:#fff"/><path d="M237.74,80.57a2.1,2.1,0,0,1-1,1.51,1.54,1.54,0,0,1-1.73-.4c-.47-.16-.31-.79-.31-1.19a2.68,2.68,0,0,1,1.49-1,2.87,2.87,0,0,1,1.58,1.11" style="fill:#fff"/><path d="M242.79,81.29a2,2,0,0,1-1.5,1.43c-.47-.08-1.34-.24-1.18-1a1.37,1.37,0,0,1,2.68-.47" style="fill:#fff"/><path d="M40.85,82.4a1.53,1.53,0,0,1-.94,1.9c-.56.32-1.11-.08-1.5-.39A1.37,1.37,0,0,1,38,82.32c.15-.72.86-.56,1.33-.88a2,2,0,0,1,1.5,1" style="fill:#fff"/><path d="M44.72,83.11c.23.64-.48.88-.63,1.36a1.31,1.31,0,0,1-1.42.15c-.56-.47-1.19-1.19-.64-1.9.64-1.19,2.29-.56,2.69.39" style="fill:#fff"/><path d="M233.09,82.72c.08.79-.63,1.35-1.1,1.82a1.35,1.35,0,0,1-1.58-1,1.64,1.64,0,0,1,.87-1.51,1.71,1.71,0,0,1,1.81.64" style="fill:#fff"/><path d="M239.56,84c-.17.72-.08,1.51-.87,2a2.29,2.29,0,0,1-1.89-.32,1.45,1.45,0,0,1-.32-1.67,1.85,1.85,0,0,1,1.89-.95c.56.32.71.71,1.19.95" style="fill:#fff"/><path d="M37.86,85.66c.31.63-.4.79-.63,1.11a1.59,1.59,0,0,1-1.58-.16c-.55-.32-.31-1.11-.24-1.51.71-1.35,2.13-.39,2.45.56" style="fill:#fff"/><path d="M234.59,87.17c.31.08.16.56.08.72-1.9,1-4.73,1.19-6.39-.32a24.93,24.93,0,0,0-3.15-1.75c.39-1,1.81-.95,2.83-1.19,2.29.32,4.1,2.46,6.63,2.54" style="fill:#fff"/><path d="M41.64,86.45c.16.64-.31.88-.47,1.35-.32.48-1,.32-1.34.16a1.32,1.32,0,1,1,1.81-1.51" style="fill:#fff"/><path d="M48.58,86.93c.32.72-.16,1.35-.79,1.74s-1-.15-1.5-.23c-.39-.56-1.1-1.19-.39-1.83.71-1.19,2.13-.56,2.68.32" style="fill:#fff"/><path d="M139.74,90.29c-.14,1.59-2.77-.23-2.39,1.89.37,1.51.67,3.32,1.57,4.45s.37,2.72.3,4a7.08,7.08,0,0,1-3,2.56c-2.24-.22-5.54,1.13-6.59-1.66-.45-1.21-1.27-2.41-1.27-3.77.22-.15.52-.15.75-.38,0-.52-.6-.83-.53-1.36,2.55-.45-1.05-2.71,1.13-2.86,1.79,1.88,4.71,1.28,6.29,3.32a6.56,6.56,0,0,0,1.12,1c-.3-1.89-1.2-3.77-1.5-5.81a2.63,2.63,0,0,1,.9-2.64c1.35-1.06,2.47.45,3.22,1.28" style="fill:#fff"/><path d="M55.52,89.77c.24.8-.39,1.28-.87,1.67-.71.32-1.1-.47-1.42-.87-.24-.8.32-1.19.79-1.59a1.72,1.72,0,0,1,1.5.79" style="fill:#fff"/><path d="M104.17,90.57a10.89,10.89,0,0,1-1,8.9c-.07.63.16,1.66-.7,1.58-2.13-2.93-.56-7.07.31-10.16.16-.8,1.1-1.11,1.34-.32" style="fill:#fff"/><path d="M171.67,92.08a9,9,0,0,1,.15,7.39l-.63.63a18.42,18.42,0,0,1-1.81-5.64,19.46,19.46,0,0,0,1-4.21c1.1-.23,1,1.2,1.34,1.83" style="fill:#fff"/><path d="M61.67,93c-.47,1-1.81,1.2-2.68,1.83a9.38,9.38,0,0,1-7,1.35,8.57,8.57,0,0,1,9-3.73c.16.32.55.16.71.55" style="fill:#fff"/><path d="M29.26,95.82c2.92,2.06,3.71,4.92,5.44,7.78.24.32,1,.4.71,1-.63.48-1.26-.48-2.13-.32a8.72,8.72,0,0,1-4.8-8.17c0-.32.47-.32.78-.32" style="fill:#fff"/><path d="M168.59,98.28c.08.8-.08,1.59-.71,1.83a1.43,1.43,0,0,1-1.81-1c-.24-.56.23-.88.39-1.28a1.41,1.41,0,0,1,2.13.4" style="fill:#fff"/><path d="M201.87,102.5a38.35,38.35,0,0,1,.55-4.37,2.94,2.94,0,0,0,.31-1.67c1.9-2.54,5.76-1.75,8.75-1.51,1.19.64,2.68.56,4,.88a2.86,2.86,0,0,1,2-.4c2.52-1.35.87-4.29,1-6.59l-.94-2.38a8.93,8.93,0,0,1-.63-1.59c-.48-.56-.79-1.59-1.26-2.15-1.34-3.49-4-5.48-6.15-8.26-4-5.24-10.34-8.18-16.64-10.24s-12.54.63-18.14,2.62a4.53,4.53,0,0,1-3.07-3.34,15.74,15.74,0,0,1,1.49-8.41c.24-2,1.58-3.5,2.13-5.33,1.42-4.44,2.92-8.81,3.24-13.65.15-2.94-2-5-4.26-6.28a4.3,4.3,0,0,0-4.34.88c-1,2.14-3.23,3.57-5.12,4.6-.16,1.35,1.49.48,2.05.95,1.73.32,3.7-.23,5.12.88.16,3.18-1.65,5.8-3.31,8.18-2.68,4-5.52,8-7.17,12.39l-.32-.32.38,19.41c2.52,4.18,5.66,9,10.34,10.53,2.53,2.06,5.68,4.52,9.07,2.7,1.81-.56,2,2,2.84,3,1,2.94-1.18,5-1.34,7.7l-2,4.37c-2.37,4.6-4.49,9.53-8.12,13.42-1.19,0-1.89,1.27-3.08,1.35-.63.87-1.89.24-2.68.56-2.44,1-5.91.39-7.57,2.69a1.11,1.11,0,0,0,.63.4c4.81.08,10.17.4,15.3.16a1.89,1.89,0,0,0,1.26-1.51c-.71-1.35.24-2.54.87-3.57.39-1.91,1.65-3.1,2.21-4.92,1.65-3.26,3.54-6.44,5.36-9.69l2.44-4a27.6,27.6,0,0,1,2.45-4.45,10,10,0,0,0,1.41-2.15c.09-.79-.31-1.11-.78-1.67.55-.55,1.41-.39,2.13-.55,2,1.19,4,3.1,4.41,5.24l.71,2.07.32,1-.16,2.62.31,2.46c.4,3.81-.31,7.7-.7,11.52-1.35,4.61-6.63,4.13-10.41,5.16-1,.63-2.76.32-2.76,1.9,4.57,1,9.93.4,14.82.32.79-.32.95-1,1.34-1.74.16-1,1.19-1.91.87-3-.87-1.11-.08-2.86-.31-4.37a2.57,2.57,0,0,0,0-1.51c.63-2.3.47-5.08.94-7.31Z" style="fill:#fff"/><path d="M240.66,99.4c-2.53,3.57-5.21,7.62-9.62,8.89-.32,0-.63.16-.79-.24,2.68-2.86,4.1-7.31,8.28-8.34a2.59,2.59,0,0,1,2.13-.31" style="fill:#fff"/><path d="M25.4,103.29c-.39.32-.08,1-.79,1.11a1.26,1.26,0,0,1-1.65-.71,1.41,1.41,0,0,1,1-1.75c.63.32,1.26.56,1.42,1.35" style="fill:#fff"/><path d="M48.11,104.38c.23.72-.56.72-1,.88A8.58,8.58,0,0,1,38.09,103c0-.31,0-.63.32-.71,3.23.79,7,.16,9.7,2.14" style="fill:#fff"/><path d="M29.74,103.35a2.14,2.14,0,0,1,.15,1.19,1.74,1.74,0,0,1-2,.72,2.56,2.56,0,0,1-1-1,1.87,1.87,0,0,1,1.34-1.5,2.37,2.37,0,0,1,1.5.63" style="fill:#fff"/><path d="M103.62,103.75c.16.71-.47,1.19-1,1.51a1.54,1.54,0,0,1-1.65-.64,1.15,1.15,0,0,1,.55-1.51c.71-.16,1.81-.08,2.05.64" style="fill:#fff"/><path d="M243.65,104.09c.24.79-.46,1.19-1,1.66a1.71,1.71,0,0,1-1.5-.24c-.08-.39-.55-.71-.39-1.27a1.68,1.68,0,0,1,1.81-.95,8.75,8.75,0,0,1,1.1.8" style="fill:#fff"/><path d="M248.86,103.75c.47.71.08,1.27-.32,1.83a1.08,1.08,0,0,1-1.42.47c-.47-.47-1.1-.71-1.18-1.43s.71-1.11,1.18-1.35c.79-.32,1.11.48,1.74.48" style="fill:#fff"/><path d="M22.09,106.05c.08.56-.4.88-.55,1.35-.4.17-.79.48-1.26.32a2.32,2.32,0,0,1-1.19-1.27,2.05,2.05,0,0,1,1.42-1.58,2,2,0,0,1,1.58,1.18" style="fill:#fff"/><path d="M188.14,106.05a2.3,2.3,0,0,1,.08,1c-.47.63-1.1,1.19-1.89.79-.47-.48-1-.95-.79-1.66a1.54,1.54,0,0,1,2.6-.17" style="fill:#fff"/><path d="M34.78,107.25c-.15.56-.39,1.11-1.1,1.19s-1-.56-1.34-.87c0-.72-.08-1.44.63-1.83a1.43,1.43,0,0,1,1.81,1.51" style="fill:#fff"/><path d="M27.21,107.41a1.67,1.67,0,0,1-.78,1.75A1.87,1.87,0,0,1,24.3,108a2.23,2.23,0,0,1,1.41-1.82c.72,0,1.11.79,1.5,1.19" style="fill:#fff"/><path d="M193.35,107.25a1.57,1.57,0,0,1-.87,1.9c-.94.32-1.73-.47-2.13-1.11.4-.64.47-1.51,1.42-1.67a1.81,1.81,0,0,1,1.58.88" style="fill:#fff"/><path d="M30.92,107.57c.23.55-.24.79-.4,1.18-.39,0-.63.48-1.1.32-.32-.39-1-.55-1-1.11-.07-.8.48-1.19,1-1.51a1.46,1.46,0,0,1,1.5,1.12" style="fill:#fff"/><path d="M239.32,108.2a2.39,2.39,0,0,1-1.34,1.27c-.63.16-1-.4-1.5-.64s-.24-1-.08-1.42a1.58,1.58,0,0,1,2.92.79" style="fill:#fff"/><path d="M245.31,108.52a2,2,0,0,1-1.89,1.35c-.71-.32-1.5-.87-.95-1.83.32-.31.48-.63.95-.71a1.51,1.51,0,0,1,1.89,1.19" style="fill:#fff"/><path d="M207.85,109.08c.4,1-.54,1.35-1.17,1.82a3.49,3.49,0,0,1-1.5-.63,1.83,1.83,0,0,1,1.1-2.07,1.89,1.89,0,0,1,1.57.88" style="fill:#fff"/><path d="M186.18,110c.39.16.23.71.15,1-.47.32-1.1,1.11-1.81.64a1.34,1.34,0,0,1-.79-1.51,1.48,1.48,0,0,1,2.45-.08" style="fill:#fff"/><path d="M190.59,110.59a1.09,1.09,0,0,1-.63,1.27c-.55.55-1.18-.08-1.74-.24a1.3,1.3,0,0,1-.08-1.19,1.78,1.78,0,0,1,1-.64c.55.16,1.18.16,1.42.8" style="fill:#fff"/><path d="M56.78,110.67c.47.47-.08,1-.16,1.51a1.54,1.54,0,0,1-2,.39c-.79-.32-.71-1.35-.55-2,.47-.16.47-.72,1.1-.72a2.73,2.73,0,0,1,1.58.8" style="fill:#fff"/><path d="M216.29,111c.16.8-.63,1.12-1.18,1.28-1,.31-1.42-.4-1.81-1,0-.48.47-.79.63-1.19,1.1-.47,1.81.32,2.36,1" style="fill:#fff"/><path d="M212,111c.31.8-.56,1.2-.87,1.59a1.6,1.6,0,0,1-1.74-.31c-.39-.24-.39-.72-.39-1.2.47-.39.71-.87,1.26-1a2.08,2.08,0,0,1,1.74,1" style="fill:#fff"/><path d="M247.6,111.94c.15,1.11-1.26.55-1.81.88-3.32,2-7.58.47-10.73-.72.24-1,1.42-.64,2.05-1,3.39-2.15,6.86.47,10.25.63Z" style="fill:#fff"/><path d="M31.79,111l-.32.56c-2.92,1.75-6.7,2.94-10.17,1.83l-.32-.48c2.92-2.15,6.78-2.7,10.57-2.15Z" style="fill:#fff"/><path d="M224.34,111.54a1.82,1.82,0,0,1-.79,1.51,1.56,1.56,0,0,1-2.05-.87c-.24-.64.39-1.27,1-1.51.56,0,1.5.08,1.82.87" style="fill:#fff"/><path d="M45.9,111.86c-.32.63-.16,1.27-.95,1.59a1.72,1.72,0,0,1-2-1c-.23-.87.4-1.11.79-1.5.95-.48,1.66.23,2.13,1" style="fill:#fff"/><path d="M40.31,112.26c.23.56-.24.87-.4,1.27a1.48,1.48,0,0,1-1.58.24c-.55-.48-1.1-1-.87-1.91a4.29,4.29,0,0,1,1.27-.87,1.78,1.78,0,0,1,1.58,1.27" style="fill:#fff"/><path d="M229.86,114.09a1.7,1.7,0,0,1-1.26,1.43,1.8,1.8,0,0,1-1.5-.8,1.25,1.25,0,0,1,.31-1.51c.16-.24.71-.24,1-.39a1.69,1.69,0,0,1,1.42,1.27" style="fill:#fff"/><path d="M34.47,113.21c.23.64-.32.87-.4,1.35-.24,1.35-1.1,2.23-1.73,3.41-1.5,1.83-3.63,1.83-5.76,2.39l-.31-.64a20.75,20.75,0,0,1,8-6.67Z" style="fill:#fff"/><path d="M225.91,115c.16,1-.63,1.11-1.18,1.51a1.78,1.78,0,0,1-1.57-1c-.24-.88.55-1.19,1-1.59a1.58,1.58,0,0,1,1.73,1" style="fill:#fff"/><path d="M43.53,115c-.08.16.09.31.24.4-.08.87-.71,1.11-1.18,1.5a2.13,2.13,0,0,1-1.74-.79,1.32,1.32,0,0,1,.79-1.82c.71-.08,1.66,0,1.89.71" style="fill:#fff"/><path d="M240.42,117.35c.79-.09,1-1,1.82-1.2a1.93,1.93,0,0,1,1.89.88c.31,1-.4,1.43-1,1.82s-1.73-.47-1.65.56a2.45,2.45,0,0,1,1.1,1.59c-.16.32-.71.24-1,.08-2.28-1-4.73-2.54-5.67-4.93-.32-.71-1.81-1.27-1-1.9,2.29-.16,4.18,1.67,5.44,3.1" style="fill:#fff"/><path d="M248,114.88a1.2,1.2,0,0,1-.08,1.51c-.39.8-1.57.47-2.28.4-.4-.4-.79-.8-.63-1.43a2.43,2.43,0,0,1,1.18-1,2.16,2.16,0,0,1,1.81.55" style="fill:#fff"/><path d="M219.37,119.17a11.42,11.42,0,0,1,1.73,3.18c-.16.24-.55.16-.7.16-2.69-1.51-6.15-3.17-7.18-6.35-.24-.32-.87-.72-.79-1.27,2-.4,4,1.11,5.44,2.22.55.79,1.18,1.19,1.5,2.06" style="fill:#fff"/><path d="M39.12,116.15c.31.72-.32,1.28-.71,1.59a1.84,1.84,0,0,1-1.82-.63c-.55-.88.48-1.59,1.11-1.91.63-.08,1,.56,1.42,1" style="fill:#fff"/><path d="M229.23,118c.08.48-.55.8-.79,1.12-.63.07-1.26.31-1.82-.24-.15-.4-.55-1-.07-1.43.86-1.11,2.13-.24,2.68.55" style="fill:#fff"/><path d="M248.86,119.1a1.84,1.84,0,0,1-1.11,2c-.78.24-1.41-.32-1.89-.71s-.07-1,0-1.51a2,2,0,0,1,2-.56,4.21,4.21,0,0,1,1,.8" style="fill:#fff"/><path d="M194.3,130.05c0,.95-1.74.71-2.45,1.43-2.44,1.27-5.36,1.27-8.28,1.19v-.48a11.73,11.73,0,0,1,10.73-2.14" style="fill:#fff"/><path d="M79.26,133.47a1.32,1.32,0,0,1-2.53.55c-.32-1,.47-1.34,1-1.74a1.86,1.86,0,0,1,1.51,1.19" style="fill:#fff"/><path d="M193,134.34a2.27,2.27,0,0,1-1.19,1.83c-.71.16-1.18-.24-1.73-.56-.4-.31-.16-.87-.24-1.27a1.7,1.7,0,0,1,3.16,0" style="fill:#fff"/><path d="M208.65,134.66c-2,1.27-4.18,2.78-6.78,2.78l-4.26-.08-.4-.32c2.6-3.17,7.34-3.17,11.44-2.86Z" style="fill:#fff"/><path d="M57.65,136.55a1.45,1.45,0,0,1-1,1.51,1.37,1.37,0,0,1-1-2.54c.87-.56,1.74.4,2,1" style="fill:#fff"/><path d="M61.59,137.34c.24.4-.15.64-.31,1a1.29,1.29,0,0,1-1.5,0,1,1,0,0,1-.47-1.35c.23-.48.71-.4.94-.72a2.24,2.24,0,0,1,1.34,1" style="fill:#fff"/><path d="M31.39,145.37c-.79,1-2.05-.23-2.92-.71-2.76-1.59-2.68-4.69-5.44-6.51.32-1,1,.08,1.58-.08a9.66,9.66,0,0,0,1.66.87c2.68,1.51,3.31,4.05,5.12,6.43" style="fill:#fff"/><path d="M261.24,114.56a6.28,6.28,0,0,0-5.91-3.26,5.45,5.45,0,0,0-4.42,3.26,4,4,0,0,0,1.5,4.37,1.2,1.2,0,0,0,1.57-.4c.4-1-.7-1-.86-1.83a2.62,2.62,0,0,1,.86-2.77c.79-.8,2.13-.4,3.08-.4a5.51,5.51,0,0,1,2.36,2.3,6.33,6.33,0,0,1,0,4.21,7,7,0,0,1-4.88,4c-6.55.95-78.38.64-78.38.64-8.44.79-18.06-1.59-25.31,2.85-3.31,1.59-5,5.24-5.83,8.5a58.69,58.69,0,0,0-6.16,6.27l-.23-.23c.39-1.91,1.26-3.58,1.66-5.48,1.18-1.59,1.18-3.74,2-5.48,3-4.85,5.84-9.77,10.49-13.18,2-2.63,5.44-2.15,8.44-2.15a20.88,20.88,0,0,0,11,1.59.75.75,0,0,0,.23-.56c-1.1-1-2.91-1.43-4.17-2.46-3.16-1.51-6.16.48-9.47.24-.16-.16-.31-.24-.23-.48a46.69,46.69,0,0,1,9.77-5.24,66.3,66.3,0,0,1,8.6-3.41c1.18,0,2.29-1,3.39-.32l4.18-1.11c.16.08.32.31.63.23,3.55-1.19,8-.08,12.06-.15l.56.47,3.78,1c1.42.16,2,1.83,3.55,1.91.79-1.11-.87-1.59-1.26-2.3a8.69,8.69,0,0,1,5.28.79l-.79.88c-.48.87.24,1.51.95,1.82.55.16.94-.24,1.34-.39,1-.72-.08-1.43.23-2.07a74.87,74.87,0,0,1,16.8,4.77c1.49.47,2.92,1.58,4.57,1.5-1.65-1.5-3.94-2.3-6-3.17-1.34-.8-3.23-.88-4.26-2,.24-.39.79-.23,1-.55,2.68-.32,5-2.31,6.86-4.45.15-.47,1-.32.94-1-.71-.8-1.89.23-2.84.16-3.31.63-4.73,4.52-8,5.24-4-1-8.12-1.91-12.14-2.94a24.79,24.79,0,0,1-5.91-1.27l-4.42-.4h-8c-.08-.16-.32-.24-.24-.47,2.84-.72,5.28-2.39,8.12-3.1l21.13-9.69a52.68,52.68,0,0,0,6-6.51,1.51,1.51,0,0,0-.87-1.51,1.32,1.32,0,0,0-1.58.32c-.94.71,0,1.59,0,2.46a13.08,13.08,0,0,1-3.62,3.09c-.32-.08-21.77,9.77-21.77,9.77A54.46,54.46,0,0,1,187,100l-4.57.71a3,3,0,0,1-2,1.83c-1.26.24-2.29,1-3.63,1-10.25,4-20.89,8.18-29,16.28a8.68,8.68,0,0,0,.79-3.34c-.16-1.19-.07-2.54-.86-3.49-.19-.44-.77-1.72-.58-2.18l-1.16.75c-.71,1.75-1.34,4.92-.63,6.75.24,1.43,1.42,3.1.32,4.37-3.79,4.61-5.92,10.17-8.44,15.41-1-.16-1.42-1-1.82-1.91a26.34,26.34,0,0,0,5.6-11.59c.56-.4.16-1.44.71-1.91-.15-1.27.71-2.54.08-3.57.51-1.74-2.3-3.34-.51-4.45l-1.49.71c-3.39,4.45,1.77,11.12-2.1,15.41v.32c-1.1,1.43-1.65,2.86-3.15,3.81-1.89-.79-2.6-2.94-3.71-4.53-1.73-1.66-1.73-5.08-.71-7.38.71-2.31-.47-4.29-.71-6.36l-.79-.47a9.16,9.16,0,0,0-1.1,9.29c.79,1.43.87,3.41,2,4.61.71,2.3,2.13,3.81,3.39,5.87.32.8-.47.95-.86,1.35-.87-.55-.72-1.82-1.5-2.38a57.78,57.78,0,0,0-10.1-14.53c-.16-.72-.86-1.35-.47-2.15a5.8,5.8,0,0,0,1-6c-.15-.4-.63-.88-.55-1.27l-1.18-1c.16,2.78-1.66,5.24-.87,8.18v.16a150.38,150.38,0,0,0-26.25-15.86l-.72,2c2.31.58,8.44,4.31,8.44,4.31a55,55,0,0,1,7.89,4.21c10.72,6,17.82,15.8,22.63,26.77.08.87.87,1.82.31,2.69-1.65-2.54-4-4-6-6-.55-3.74-2.76-7.31-6-8.82-1.19-1.74-3.71-1.9-5.68-2.46L84.38,125c-23.34-.32-44.63.72-67.81.32-3.23-.32-7.18-1.43-8.12-4.85a5.26,5.26,0,0,1,0-4.36,4.81,4.81,0,0,1,4-2.15c1.26.16,2.13,1.35,2.68,2.23,0,1-.87,2-1.26,2.86.08.31.39,1,.94.71a3.72,3.72,0,0,0,2.06-2.54c.07-.56.31-1.35-.24-1.75a5.27,5.27,0,0,0-3.71-3.25,6.57,6.57,0,0,0-5.36,1.82c-1.89,1.59-1.81,4.45-1.26,6.67,1.26,3.5,5,5.88,8.51,6.36l76.73.32c7.49.39,15.92-.88,23.49.63,2.76.87,5.68,2.94,6.39,6-.08.15-.32.08-.55.08-6.23-4.05-14.43-5.56-22.4-4.61-3.15-.16-6,1-8.83,1.83a4.49,4.49,0,0,1-3.86-1.27c-2.84-2.55-7.81-2.39-11.43-1.44,0,.24-.08.48.07.56,3.87-.32,6.15,3,9.62,3.42.79.15,1.42-.72,2.13-.08-3.62,1.74-7.09,3.81-11,4.92-1.18-.24-1.81-1.35-2.76-2-1.5-1.67-4.25-1-6.3-1.12-.71.16-1.34-.31-1.82,0,.63,1.27,2.05,2,3.39,2.62,2,.88,4.26-.08,6.07,1.12a7.83,7.83,0,0,1-1.65,1.11c-3.71,1.43-6.78,4.77-10.88,4.53A14.09,14.09,0,0,1,49.6,140c-1.26-3.1-4.49-4.76-8-4.6-.23.16-.55.16-.47.55,1.73,1,3.08,3.1,4.81,4.29,1.1,1.35,3.23,0,4.25,1.51a14.06,14.06,0,0,0,5.13,2.22,22,22,0,0,0,4.1,1.12l-.55.31c-7.17,2.38-15.45,2.63-23.5,2.31-2.36-.08-4.65-.8-7-.72a4.3,4.3,0,0,0,1.89,1.11,4.74,4.74,0,0,1-2.13.64,14.46,14.46,0,0,0-3,.79,7.87,7.87,0,0,0-3.39.8A16,16,0,0,1,17.28,154c0,.32-.08.8.31.8,1.5-.64,3.39-.17,4.89-.8,2.6-.24,4.1-3.1,6.15-4.29,2.21-1.75,5.36-1.35,8.05-.95,1.57.4-.16,1,.31,2.06.63.56,1.18,1.2,2,1a1.4,1.4,0,0,1,.55-.4,1.8,1.8,0,0,0,.08-2c1.11-.71,2.6.08,3.79-.39,3-.08,6-.72,8.91-.8.47-.08,1-.55,1.49-.08-.23.64-1,.72-.7,1.59.15.71.94,1,1.57,1.19.79-.31,1.5-.87,1.18-1.9-.15-.56-.78-.64-1.18-.88,1.66-.79,3.55-1,5.21-1.82a14.83,14.83,0,0,0,3.31-1.12c1-.07,1.89-1,2.84-.63a16.6,16.6,0,0,1-1.66,3.81c-1.26,4.21-2.21,9.77,0,13.82.24.08.32-.08.47-.16-1.65-4.21-.71-9.05.71-13,1.11-6.75,8-8.74,13-11.28l.23.32c-1.34,3.49-3.31,6.83-3,11,.16.71-.31,1.42,0,1.9,1.34-.71,2.21-2.3,2.92-3.65.55-3.57-1.5-8,2.13-10.64,6.47-2.54,12.54-5.88,20-6,.23.24.79-.16.86.32-1.57,1.74-3.86,3.41-4.57,5.56-2.52,3.49-2.44,9.45-1.34,13.74.71,2.46-1.42,3.81-2.44,5.71-.49.68-.63,1.84-1.08,2.61l1.55.18a8.46,8.46,0,0,0,2.68-5.25,2.18,2.18,0,0,0,1.5,1.59c.55-.87-.47-1.51-.55-2.38,1.26-.72,1.81.87,2.84,1.19,1.65.4,3.07,1.11,4.8,1.11l.56-.55c-1.74-2.7-5.21-3.18-8.2-3.34-1.58-2.62-1.58-5.87-1.42-9a13.87,13.87,0,0,1,1.57-4.93,11.93,11.93,0,0,1,2.21-3,10.84,10.84,0,0,1,5-2.7h.24a.33.33,0,0,0,.07.23c-2.12,1.67-2.36,4-3.62,6s-2,4.68-.71,6.91c.47,1,.24,2.62,1.34,3.34,1-1.43,1.1-3.26,1.66-4.85-.24-2.62-1.82-5.08-.32-7.62.79-2,2.44-2.79,4.26-3.5,4.33-.39,8.12,1.83,11.9,3.5.79.55,2.13,1,2.29,2.14a6.74,6.74,0,0,1-2.92,5.32c-2.13,1.27-5.2,1.43-7.17-.08a5.39,5.39,0,0,1-1.26-4.84,3.24,3.24,0,0,1,3.47-1.27c.78.39,1.49,1.19,2.52.71a1,1,0,0,0,.31-1.27c-.86-.47-1.18-1.67-2.36-1.83-1.5-.23-3.31-.16-4.34.88a5.59,5.59,0,0,0-1.81,5.56,6.78,6.78,0,0,0,4.89,5.08,9.16,9.16,0,0,0,9.7-3.34,10.76,10.76,0,0,0,1.73-3.41,20.54,20.54,0,0,1,8.12,10.48c0,1.35.4,2.78.08,4l2.76.24A2.61,2.61,0,0,1,136,152c1-5.24,4.26-9.62,8.12-13,1.34-.79,1,1,1.34,1.59a10.62,10.62,0,0,0,6.86,6c3.31.55,6.46-.24,8.51-2.78,1-1.91,2.29-4.69.56-6.68a5.49,5.49,0,0,0-4.34-2.06c-2.05,0-3.31,1.43-4.34,2.94,0,.63-.08,1.35.48,1.67.31,0,.94.07,1.18-.4.16-1.19,1.18-1.75,2.13-2.39a2.46,2.46,0,0,1,2.52.48,4.12,4.12,0,0,1,1.1,3.1,4.75,4.75,0,0,1-2.6,3.73,8,8,0,0,1-7.57-.71,17.55,17.55,0,0,1-2.2-3.5c-.16-1.27-.64-2.38,0-3.65a26.44,26.44,0,0,1,11.27-4,8,8,0,0,1,4.18,2.62c3.63,3.73-.79,9.06,1.73,13.18,1-.15,1-1.42,1.34-2.22,1.19-2.86-.31-6-1-8.74-.95-1.74-1.5-3.25-3-4.68a2,2,0,0,1,1-.16,19.43,19.43,0,0,1,4.81,4.13,21.29,21.29,0,0,1,3.07,13c-.62,2.39-3.15,3.5-5.12,4.37a7.45,7.45,0,0,0-2.13,2.54c.95.56,2.29,0,3.23-.4,1.5-.55,2.37-2.46,3.4-3.33.15.08.07.32.15.48.08.87-.39,2.06.4,2.3a29.78,29.78,0,0,0,.71-4.05c1,1.11,1.18,2.54,1.49,4,.71,1.43,1.9,3.34,3.79,3.57.47-.71-.08-1.43-.24-2.06-.23-2-1.89-3-3-4.45-2.76-3.81-1.5-9.77-3.63-14.05-.79-2.31-2.45-4-4.26-5.88l.32-.32c3.86-.08,7.09,1.19,10.64,1.91,4.34,2.14,10.65,1.67,12.7,7.3A20.72,20.72,0,0,0,194,150l.24-.16a3.24,3.24,0,0,0,0-2.94c-.48-4-3.95-4.92-5.76-8.26l.24-.32a55.42,55.42,0,0,1,5.75,1.83c6.31,1.75,10.73,7.94,11.52,14.38a31,31,0,0,1-2.92,13.57c-.24.64-1.34,1.36-.63,1.91.86-.63,1-1.66,1.49-2.38a22.12,22.12,0,0,0,2.61-16c-.08-1-1.26-1.83-.71-2.86a2.45,2.45,0,0,0,1.34.71c.47-.32,1.18-.32,1.5-.87.08-.48.39-1,0-1.43a2.17,2.17,0,0,0-2.29-.56,3.85,3.85,0,0,0-1,1.75,16.17,16.17,0,0,0-2.84-4.21l.16-.24c3.55,1.19,6.78,2.94,10.41,3.9a5.25,5.25,0,0,0,2.76.87c3.08,1.19,6.47,1.66,9.7,2.46,2.36-.24,4.34.87,6.7.32v-.16l-.08.08c-.86-1.11-2.76-.08-3.78-.87a59.55,59.55,0,0,1-15.54-3.9c.08-.24.4-.16.64-.16a2,2,0,0,0,1.26-2,2.14,2.14,0,0,0-1.82-.87A2.19,2.19,0,0,0,211.8,145a2,2,0,0,0,1.18,1.5c-.15.16-.47.09-.7.09-2.45-1.12-4.82-2.15-7.18-3.26-.87-.16-1.58-.88-2.45-1-1.81-.87-3.63-1.74-5.44-2.45-5-2.63-10.64-4-16-6-1.19-.32-2.29-.64-3.39-1-2-.56-3.95-1-5.92-1.59-6.7-1.67-15.69-1.83-21.52,1.82-.95-.32-1.5,1.19-2,.24,1.66-4.37,6.47-5.8,10.81-5.95,31.61-.32,61.27-.56,92.41-1,3.63,0,7.18-1.27,9.07-4.52a8,8,0,0,0,.55-7.31m-125.37,29.3c-.32,1-1,1.75-.87,2.78l-.31.16c.23-1.19-.95-1.9-.64-3.17-.63-1-.63-2.15-1.18-3.18-.71-1.27.63-1.83,1.18-2.7,1.11.48,1.5,1.51,2.29,2.46.47,1.35-.55,2.38-.47,3.65" style="fill:#fff"/><path d="M221.42,138.85c0,.24.47.32.32.72-2.76,2.46-6.63,3.17-10.57,3.33-.32.08-.63.32-1,.24s-.32-.4-.16-.55a12,12,0,0,1,11.43-3.74" style="fill:#fff"/><path d="M208.73,140.13c.31,1.11-.4,1.74-1.27,2.14a2.25,2.25,0,0,1-1.73-1.27c-.24-.63.31-.95.55-1.35a1.5,1.5,0,0,1,2.45.48" style="fill:#fff"/><path d="M58.83,140.29a1.61,1.61,0,0,1-.39,1.66,1.6,1.6,0,0,1-1.42.4c-.55-.08-.87-.71-1-1.19a1.73,1.73,0,0,1,1-1.51c.63,0,1.34-.08,1.81.64" style="fill:#fff"/><path d="M44.72,145.45V146a6.15,6.15,0,0,1-5.13-1.19,10.5,10.5,0,0,0-4.18-4c0-.24-.47-.56,0-.71,3.94,0,6.31,3.17,9.31,5.31" style="fill:#fff"/><path d="M233.4,140.21c-1.81,2.7-3.39,6-6.62,7.22-.55,0-1,.8-1.5.24,1.27-3,3.95-6.27,7-7.54a2.56,2.56,0,0,1,1.1.08" style="fill:#fff"/><path d="M63.41,141.16c.08.87-.55,1-1.11,1.51-.63.08-.94-.4-1.34-.88-.32-.79.4-1.1.79-1.5a1.64,1.64,0,0,1,1.66.87" style="fill:#fff"/><path d="M243.34,141.64c-.71,1-.4,2.54-1.1,3.65-1.58,1.83-2.92,3.89-5.45,4.29-.39-.79.56-1.59,1-2.3,1.11-2.38,2.68-5.09,5.2-6.12Z" style="fill:#fff"/><path d="M20.27,142.35a1.55,1.55,0,0,1,0,1.75,1.83,1.83,0,0,1-1.81.32,1.48,1.48,0,0,1-.63-1.91c.47-.71,1.89-1.11,2.44-.16" style="fill:#fff"/><path d="M15.78,143.31c.08.4.31.72.24,1.11a1.83,1.83,0,0,1-1.11,1,1.64,1.64,0,0,1-1.81-1,1.56,1.56,0,0,1,.79-1.67,1.61,1.61,0,0,1,1.89.64" style="fill:#fff"/><path d="M25.08,143.78c.16.64.32,1.75-.63,1.91-1.1.48-1.73-.32-2.36-.95a1.79,1.79,0,0,1,.94-1.59,2.19,2.19,0,0,1,2,.63" style="fill:#fff"/><path d="M38,144.82c-.08.55.07,1.35-.56,1.51-.39.4-1.1.24-1.49.16-.16-.48-1-.88-.56-1.43a3,3,0,0,1,1.11-.88c.47.24,1.18,0,1.5.64" style="fill:#fff"/><path d="M250.91,145.37c-.24.56-.55,1.28-1.18,1.28s-1.42-.16-1.82-.88c-.31-.87.4-1.35,1-1.59.79,0,1.81.32,2,1.19" style="fill:#fff"/><path d="M236.48,145.77c.08.64-.63,1.12-.95,1.35a1.89,1.89,0,0,1-2.44-1.19,2.05,2.05,0,0,1,1.34-1.43,2.08,2.08,0,0,1,2,1.27" style="fill:#fff"/><path d="M246.26,145.61a1.64,1.64,0,0,1-.71,1.35,1.84,1.84,0,0,1-1.9-.31c-.7-.64-.15-1.2.32-1.67.71-.4,2.05-.32,2.29.63" style="fill:#fff"/><path d="M18.22,147a1.67,1.67,0,0,1-.94,2,1.81,1.81,0,0,1-1.74-1.11,1.5,1.5,0,0,1,.79-1.67,1.79,1.79,0,0,1,1.89.8" style="fill:#fff"/><path d="M232.54,147.84a1.77,1.77,0,0,1-1.11,2.07c-.63.15-1-.17-1.49-.56-.32-.4-.71-1.27-.08-1.67.63-1.19,2.21-.71,2.68.16" style="fill:#fff"/><path d="M60.65,148.71c.31.88-.63,1-.87,1.51-.32.16-1,.24-1.18-.08-.4-.47-.87-.95-.63-1.67.39-.31.55-.63,1-.79.87-.24,1.19.56,1.66,1" style="fill:#fff"/><path d="M249.49,149.27c.16.56-.31.79-.39,1.19a2.12,2.12,0,0,1-1.82.32c-.71-.4-.71-1-.71-1.75.48-.31.56-.71,1.11-.87a1.81,1.81,0,0,1,1.81,1.11" style="fill:#fff"/><path d="M244.6,149.51c.32,1-.55,1.43-1.18,1.67-.32.08-.79-.16-.87.32,2,1,3.31,2.69,4.89,4.2v.64c-2.84-.08-5.76-.8-7.81-3-.55-.4-1.49-.4-2.12-.95,1-1,2.91-.64,4.33-.72,1-1.11-1.18-1.9.16-2.85.47-.08.79-.56,1.42-.4a2.64,2.64,0,0,1,1.18,1.11" style="fill:#fff"/><path d="M212.35,149.59c.16.4-.31.87-.39,1.27a1.6,1.6,0,0,1-1.74.32c-.39-.56-1-1-.79-1.83.64-1.19,2.68-.95,2.92.24" style="fill:#fff"/><path d="M36.05,152.35c-.24.72-.56,1.19-1.34,1.27a1.57,1.57,0,0,1-1.43-1c-.08-.55.32-.87.4-1.27.87-.72,2.44-.24,2.37.95" style="fill:#fff"/><path d="M42.43,151.34c0,1.11-1.18,1.74-1.58,2.86-1.18,2.62-3.31,5-6.3,5.24-.32-.72,1-1.59,1.34-2.3,1.26-2.7,3.78-4.13,6.07-5.8Z" style="fill:#fff"/><path d="M210.46,152.43c.08.88-.71,1.51-1.34,1.83s-1.27-.32-1.66-.64c-.63-.63-.23-1.27.08-1.9,1-1,2.29-.16,2.92.71" style="fill:#fff"/><path d="M215.35,153a2,2,0,0,1-1.42,1.75c-.16-.24-.55-.08-.79-.17a1.74,1.74,0,0,1-1-1.42c.4-.4.56-1,1.11-1.11.71-.09,1.89,0,2.13,1" style="fill:#fff"/><path d="M54.65,152.91a1.72,1.72,0,0,1-1.18,1.67,1.55,1.55,0,0,1-1.5-1c-.16-.71.55-1.19,1-1.58.94-.32,1.18.39,1.73.87" style="fill:#fff"/><path d="M60.1,153.23a1.91,1.91,0,0,1-1.5,1.35c-.56-.16-1.19-.32-1.42-1-.08-.79.55-1.19,1.1-1.58a1.66,1.66,0,0,1,1.82,1.19" style="fill:#fff"/><path d="M232.3,158.79c.4.32,1.1.72.95,1.28-1.26.55-2.29-.88-3.47-1.12a16.29,16.29,0,0,1-4.1-6.35c.71-.72,1.5.16,2.13.4a15.49,15.49,0,0,1,4.49,5.79" style="fill:#fff"/><path d="M235.22,153.23a2,2,0,0,1-.16,1.74c-.47.8-1.5.64-2.21.48-.39-.48-1.1-1.11-.63-1.83.24-.63.95-.79,1.5-1,.55-.08.95.4,1.5.64" style="fill:#fff"/><path d="M67.35,155.29c.08.64.23,1.59-.55,2a1.54,1.54,0,0,1-1.9-.95c-.39-1,.48-1.11.95-1.59.63-.16,1,.16,1.5.55" style="fill:#fff"/><path d="M215.11,160.46a11.59,11.59,0,0,1,2,5.64c-.24.56.4,1.11-.08,1.51h-.31c-3.55-2.54-4.34-6.12-5.68-9.69a.64.64,0,0,1-.32-.79c.79-.72,1.34.71,2.13,1Z" style="fill:#fff"/><path d="M77.6,157.76c-.08.08,0,.16.08.16-3.16,2.22-7.57,3.57-11.2,1.43a.61.61,0,0,1,.39-.72c2.29-.71,4.5-1.82,6.94-1.5Z" style="fill:#fff"/><path d="M59.62,158.16c-2.68,1.66-5.12,4.92-8.44,5.71-.63.24-1,1.12-1.81.64,1.42-4.29,6.07-6.59,10.25-7Z" style="fill:#fff"/><path d="M210.46,161.74c.23.63,0,1.5-.63,1.66a1.09,1.09,0,0,1-1.5,0c-.71-.31-.71-1-.71-1.59.23-.55.79-.63,1.18-.87.71.16,1.27.16,1.66.8" style="fill:#fff"/><path d="M203.91,162.13a4.44,4.44,0,0,1-2.83,2.07c-2.69,1-5.13-.32-7.49-1,.07-.63.86-.39,1.26-.79,2.6-.56,5.28-1.11,8-.4a.82.82,0,0,1,1,.08" style="fill:#fff"/><path d="M59.62,164.44c-.24.31-.31,1-.95,1.27a1.62,1.62,0,0,1-1.57-.32c-.16-.48-.71-.87-.32-1.43.16-.56.79-.71,1.26-.87a1.68,1.68,0,0,1,1.58,1.35" style="fill:#fff"/><path d="M64.27,165.15a2.82,2.82,0,0,1-1.1,1.51,1.74,1.74,0,0,1-1.58-.55,1.89,1.89,0,0,1-.23-1.59c.15-.4.7-.48,1.1-.72.79-.07,1.5.72,1.81,1.35" style="fill:#fff"/><path d="M209,166a2.08,2.08,0,0,1-.55,1.51,1.35,1.35,0,0,1-1.73.32c-.56-.08-.72-.72-1-1.12-.48-.63.31-1,.55-1.58A1.71,1.71,0,0,1,209,166" style="fill:#fff"/><path d="M212.43,165.79c.08.4.32.79.16,1.11-.48.4-.79,1.43-1.74,1-.47.15-.7-.48-.94-.64a1.51,1.51,0,0,1,.94-2.15c.71-.24,1.19.4,1.58.64" style="fill:#fff"/><path d="M61.44,168.08a2.16,2.16,0,0,1-.8,2.15c-.86.15-2,.15-2.28-.88a2.14,2.14,0,0,1,1-2.31,1.92,1.92,0,0,1,2.13,1" style="fill:#fff"/><path d="M65.93,167.78c-.16,2.22-.63,4.92-2.84,6.19-1.26.24-2.52,1.43-3.78.64v-.4C61,171.83,64,170,65.93,167.78" style="fill:#fff"/><path d="M196.58,169.59c.32.47-.24.87-.47,1.27-.47.55-1.34.32-1.89.08s-.63-1-.4-1.59a1.64,1.64,0,0,1,1-.88c.71-.07,1.34.56,1.73,1.12" style="fill:#fff"/><path d="M73.81,173.24c1.11,1.83.48,4.3,1.11,6.28-1.34.16-1.89-1.35-2.76-2.14-1.73-2.39-1.5-5.56-2.29-8.34a.42.42,0,0,1,.56-.16c1.18.79,2,2.3,3,3.33-.16.56.47.56.39,1" style="fill:#fff"/><path d="M200.52,170.22c0,.64-.71.8-1.1,1.19a2.9,2.9,0,0,1-1.5-.71c-.24-.8.4-1,.79-1.43a1.31,1.31,0,0,1,1.81.95" style="fill:#fff"/><path d="M209.91,177.3c0,.24-.08.71-.48.55h-.31c-2.29-2.06-4.58-4.36-4.26-7.54l.47-.08c2.13,1.83,4.5,3.81,4.58,7.07" style="fill:#fff"/><path d="M204,174.76a1.81,1.81,0,0,1-.71,1.5c-.86.25-2.2.16-2.36-1-.08-.8.79-1.2,1.18-1.6a1.62,1.62,0,0,1,1.89,1.12" style="fill:#fff"/><path d="M198.79,176.43c-1.11,2.94-4.1,4.44-6.15,6.67-.4-.24-.24-.88-.16-1.19a11,11,0,0,1,6.07-7.15c1.26.16,0,1,.24,1.67" style="fill:#fff"/><path d="M204.7,178.81c0,.71-.71,1-1.1,1.43a2.32,2.32,0,0,1-1.73-.87c-.08-.8.55-1,1-1.43a1.62,1.62,0,0,1,1.81.87" style="fill:#fff"/><path d="M146,34.62a2,2,0,0,1,0,3.93H122.65a2,2,0,0,1,0-3.93ZM129.5,38c2.28,0,.12-2.77-1.11-2.77h-2.28c-2.28,0-.12,2.77,1.1,2.77Zm9.58,0c2.28,0,.12-2.77-1.11-2.77h-2.28c-2.28,0-.13,2.77,1.1,2.77Zm7.06-2.77h-.87c-2.29,0-.35,2.77.88,2.77,1.53,0,1.62-2.77,0-2.77" style="fill:#fff"/><path d="M144,61.45l4.47,1.71,4.39-1.71L151.1,68l3.48-.73-1.18,4,1.18,3.83-3.08-.84,1.34,7.09-4.39-1.71L144,81.37l1.82-7.09-3.56,1,.95-4-.95-3.83,3.4.57Zm6.59,11.86c1,0,1.1-1.38,1.1-2.58,0-2.7-2.15,0-3.25-2.55-.8,2.16-3,.16-3,2.48,0,1.59,0,2.65,1.57,2.65Zm-4.37-2.44c0,1,1.38.34,2.41.34s2.41.7,2.41-.34c0-1.47-1.38-1-2.41-1s-2.41-.51-2.41,1" style="fill:#fff"/><polygon points="133.52 71.13 133.52 70.29 132.78 70.15 133.36 69.54 133 68.87 133.76 68.95 134.23 68.14 134.68 68.94 135.46 68.87 135.1 69.54 135.68 70.15 134.94 70.29 134.94 71.13 134.23 70.6 133.52 71.13" style="fill:#fff"/><polygon points="130.06 75.6 130.06 74.77 129.31 74.62 129.9 74.02 129.53 73.34 130.3 73.43 130.76 72.61 131.22 73.41 132 73.34 131.63 74.02 132.22 74.62 131.47 74.77 131.47 75.6 130.76 75.07 130.06 75.6" style="fill:#fff"/><polygon points="135.94 75.02 135.94 74.19 135.19 74.05 135.78 73.44 135.42 72.76 136.18 72.85 136.65 72.03 137.1 72.84 137.88 72.76 137.52 73.44 138.1 74.05 137.36 74.19 137.36 75.02 136.65 74.5 135.94 75.02" style="fill:#fff"/><polygon points="136.63 78.36 136.63 77.89 136.21 77.81 136.54 77.47 136.34 77.09 136.77 77.13 137.03 76.67 137.29 77.13 137.73 77.09 137.52 77.47 137.85 77.81 137.43 77.89 137.43 78.36 137.03 78.07 136.63 78.36" style="fill:#fff"/><polygon points="131.17 82.18 131.17 80.75 129.89 80.51 130.89 79.46 130.27 78.31 131.58 78.45 132.38 77.05 133.16 78.43 134.49 78.31 133.87 79.46 134.87 80.51 133.59 80.75 133.59 82.18 132.38 81.27 131.17 82.18" style="fill:#fff"/><polygon points="133.95 7.26 136.73 14.09 143.76 12.02 140.2 18.46 146.19 22.71 138.96 23.92 139.4 31.28 133.95 26.34 128.51 31.28 128.95 23.92 121.72 22.71 127.71 18.46 124.14 12.02 131.18 14.09 133.95 7.26" style="fill:#fff"/><path d="M108.51,160.42c-.83.31-1.16.54-1,1.41l1,4.19a3.75,3.75,0,0,1-.28,2.74,5.09,5.09,0,0,1-2.86,1.7,5.79,5.79,0,0,1-3.37-.07,2.48,2.48,0,0,1-1.64-2.11l-1-4.39c-.25-1.1-.67-1-1.56-.89l-.08-.33L103,161.4l.08.32c-1,.29-1.51.42-1.24,1.58l1,4.38c.18.75.61,2.56,2.86,2a2.55,2.55,0,0,0,2.11-3.52l-1-4c-.19-.8-.48-1.2-1.84-.93l-.08-.33,3.44-.82Z" style="fill:#fff"/><path d="M116.35,161.3a3.38,3.38,0,0,0-3.61-1.75c-.82.18-1.6.77-1.41,1.63.16.7.52.92,2,1.19l2.52.44a2.83,2.83,0,0,1,2.26,2c.26,1.16-.4,3-3.29,3.62a14,14,0,0,1-2.78.16c-.33.07-.36.33-.37.55l-.46.1-.71-3.25.45-.11a3.34,3.34,0,0,0,3.84,2.1c1.89-.41,1.68-1.74,1.64-1.91-.2-.88-1-1-2.11-1.21l-1.15-.19c-2.92-.48-3.17-1.61-3.3-2.22-.18-.8-.09-2.7,2.89-3.37a14.13,14.13,0,0,1,2.55-.11c.36-.08.4-.29.42-.56l.47-.11.63,2.86Z" style="fill:#fff"/><path d="M126.75,166.49,121,167l0-.33c1.16-.19,1.54-.26,1.43-1.38l-.67-7.09c-1.11.17-2.76.39-2.88,2.57l-.46,0-.21-2.7,9.61-.93.29,2.7-.46.05c-.53-2.12-2.18-2-3.3-2l.68,7.08c.11,1.15.49,1.14,1.68,1.09Z" style="fill:#fff"/><path d="M140.13,166.49l-3.3-.06-3.24-4.3h-.44l-.05,2.64c0,1.08.33,1.13,1.39,1.27v.34l-5.43-.11v-.34c1.09-.08,1.41-.12,1.43-1.21l.12-6c0-1.17-.47-1.2-1.39-1.28v-.33l5.18.1c1.12,0,4.53.19,4.48,2.46,0,1.66-1.69,2-2.57,2.26l3.16,3.91a.78.78,0,0,0,.65.27Zm-7-4.79c2.11,0,3-.26,3-2a1.7,1.7,0,0,0-1.9-2c-.89,0-.92.14-1,.55Z" style="fill:#fff"/><path d="M150.68,167.85l-5.17-.65,0-.33c1,.06,1.29.08,1.34-.36a6.66,6.66,0,0,0-.51-1.87l-3.59-.46a8.69,8.69,0,0,0-.92,1.64c-.06.51.7.65,1.24.74l0,.34-3.24-.41,0-.33c.87,0,1.16-.43,1.76-1.37l4.45-6.9.45.06,2.68,7.49c.54,1.52.74,2,1.51,2.08Zm-4.48-3.77-1.2-3.45-1.91,3.06Z" style="fill:#fff"/><path d="M160,169.75l-9.15-1.68.07-.34c.9.07,1.38.12,1.53-.69l1.16-6.42c.16-.88-.48-1-1.19-1.2l.06-.33,5.52,1-.06.33c-1.11-.16-1.61-.24-1.82.93L155,167.63c-.12.64.21.81,1.27,1a4,4,0,0,0,4.48-1.87l.46.08Z" style="fill:#fff"/><path d="M166.11,171.12,160.6,170l.07-.33c.86.11,1.49.19,1.66-.63l1.32-6.39c.18-.88-.56-1.06-1.27-1.25l.07-.33,5.5,1.16-.06.33c-.75-.13-1.51-.27-1.69.62l-1.33,6.39c-.17.85.45,1,1.31,1.26Z" style="fill:#fff"/><path d="M177.29,172.55,172.1,172l0-.34c1,0,1.29.05,1.33-.39a6.77,6.77,0,0,0-.55-1.86l-3.6-.37a7.68,7.68,0,0,0-.88,1.65c-.05.51.71.63,1.25.72l0,.33-3.25-.33,0-.34c.88,0,1.15-.45,1.73-1.41l4.3-7,.45,0,2.85,7.43c.57,1.51.78,2,1.55,2.05Zm-4.56-3.68-1.28-3.43-1.84,3.11Z" style="fill:#fff"/><path d="M136.17,63.63c0-3.25-1.81-.21-2.82-3-.74,2.33-2.93.37-2.93,2.87a2,2,0,0,0,.72,1.82v1a.45.45,0,0,0,.44.45H135a.45.45,0,0,0,.44-.45v-1a2.08,2.08,0,0,0,.7-1.65m-2.81.62c-.94,0-2.22.65-2.22-.47,0-1.59,1.08-1.24,2-1.24s2.41-.35,2.41,1.24c0,1.12-1.27.47-2.22.47" style="fill:#fff"/><path d="M164.38,103.43a1.32,1.32,0,1,0-1.48-1.31,1.4,1.4,0,0,0,1.48,1.31" style="fill:#fff"/><path d="M157.4,55.4a8.25,8.25,0,0,0-.7,1.4.75.75,0,0,0,.71.77.74.74,0,0,0,.7-.77s-.71-1.4-.71-1.4" style="fill:#fff"/><path d="M109.77,55.4a8.25,8.25,0,0,0-.7,1.4.71.71,0,1,0,1.42,0s-.72-1.4-.72-1.4" style="fill:#fff"/><path d="M121.68,55.4a8.25,8.25,0,0,0-.7,1.4.75.75,0,0,0,.71.77.74.74,0,0,0,.7-.77s-.71-1.4-.71-1.4" style="fill:#fff"/><path d="M133.58,55.4a8.25,8.25,0,0,0-.7,1.4.71.71,0,1,0,1.42,0s-.72-1.4-.72-1.4" style="fill:#fff"/><path d="M145.49,55.4a8.25,8.25,0,0,0-.7,1.4.71.71,0,1,0,1.42,0s-.72-1.4-.72-1.4" style="fill:#fff"/><path d="M109.79,71.74a8.25,8.25,0,0,1,.7,1.4.71.71,0,1,1-1.42,0s.72-1.4.72-1.4" style="fill:#fff"/><path d="M109.79,87.63a8.1,8.1,0,0,1,.7,1.39.71.71,0,1,1-1.42,0s.72-1.39.72-1.39" style="fill:#fff"/><path d="M111.7,100.21a8.25,8.25,0,0,1,.7,1.4.71.71,0,1,1-1.42,0s.72-1.4.72-1.4" style="fill:#fff"/><path d="M121.68,106.89a8.25,8.25,0,0,1,.7,1.4.71.71,0,1,1-1.41,0s.71-1.4.71-1.4" style="fill:#fff"/><path d="M158,71.74a8.29,8.29,0,0,0-.69,1.4.73.73,0,0,0,.7.77.74.74,0,0,0,.71-.77s-.72-1.4-.72-1.4" style="fill:#fff"/><path d="M158,87.63a8.15,8.15,0,0,0-.69,1.39.74.74,0,0,0,.7.78.75.75,0,0,0,.71-.78s-.72-1.39-.72-1.39" style="fill:#fff"/><path d="M156.09,100.21a8.29,8.29,0,0,0-.69,1.4.71.71,0,1,0,1.41,0s-.72-1.4-.72-1.4" style="fill:#fff"/><path d="M146.11,106.89a8.25,8.25,0,0,0-.7,1.4.71.71,0,1,0,1.42,0s-.72-1.4-.72-1.4" style="fill:#fff"/><path d="M134,114a8.15,8.15,0,0,0-.69,1.39.74.74,0,0,0,.7.78.75.75,0,0,0,.71-.78S134,114,134,114" style="fill:#fff"/><path d="M153.33,90.27c.14.23.52.3,1,.14l.45-1.28a1,1,0,0,0-.85-.52c-1.27.3-2.62.45-3.37,1.66a2.5,2.5,0,0,0,1.2,2c.45-.15.53.3.83.53a.53.53,0,0,1-.53.68c-.9-.91-2.47.3-3.14-.83.29-1.13.9-2.42-.08-3.47.08-.23.45-.45.23-.68-.38-1.06-1.5-.23-2.18-.23a2.87,2.87,0,0,0-2.69,1.36,2,2,0,0,0,.6,1.13c.3-.07.44,0,.52.3l-.75.46a1.47,1.47,0,0,1,.3.83c-.52.22-1.05-.53-1.27-.91,0-.6.07-1.66-.75-1.81a3.19,3.19,0,0,0-.65.22,2.19,2.19,0,0,0-.31,1.25,5,5,0,0,0,.3,1.35A12.77,12.77,0,0,1,145,95.18c-.67,1.35-.67,3.24-2.25,4-.45.3-.45.75-.45,1.21l.38.3c1-.53,2.85-.68,2.7-2.34a5.82,5.82,0,0,1,1.42-2,1.56,1.56,0,0,1,1.72.83,2.93,2.93,0,0,1-2,2.26c-.15.15-.08.38-.08.61.3.53,1.13.3,1.58.22,1.27-.83,1.8-2.33,2.92-2.79.15.75-1.5,1-.45,1.74.67-.15,1.57.07,2-.83-.52-1.28,1.8-1.89.38-3,0-1.13,1.19-1.58,1.12-2.79-.45-1.21-1.88-1.21-2.25-2.34a1.67,1.67,0,0,1,1.58,0" style="fill:#fff"/><path d="M98.61,104a1.32,1.32,0,1,0-1.49-1.31A1.41,1.41,0,0,0,98.61,104" style="fill:#fff"/><path d="M21.39,149.11a1.4,1.4,0,1,0-1.46-1.4,1.43,1.43,0,0,0,1.46,1.4" style="fill:#fff"/><path d="M70.54,160.08h-.1l-.1-.12h0V160s0,0,0,0h-.16s0,0,0,0v-.18s0,0,0,0h.15s.14,0,.14.07,0,.06-.07.06l.09.12h0Zm-.21-.13c.06,0,.09,0,.09-.06a.05.05,0,0,0-.06-.06s0,0,0,0Z" style="fill:#fff"/><path d="M70.74,159.89a.09.09,0,0,0-.09-.08s-.05,0-.05,0,0,0,.05.05l.07,0a.07.07,0,0,1,0,.07s0,.08-.12.08h-.08a0,0,0,0,0,0,0h0V160h0a.1.1,0,0,0,.1.09.06.06,0,0,0,.06,0s0,0-.06,0l0,0c-.08,0-.08-.06-.08-.08s0-.08.1-.08l.08,0s0,0,0,0h0v.09Z" style="fill:#fff"/><path d="M71.24,159.83l0,0-.09.24h0L71,159.9h0l-.09.19h0l-.1-.24,0,0h.1v0l0,.14h0l.06-.12,0,0h.08s0,0,0,0l0,.14h0l.05-.14h0s0,0,0,0h.09Z" style="fill:#fff"/><path d="M71.25,160.08a.16.16,0,0,0,.13-.11h0a.07.07,0,0,1-.08-.08.09.09,0,0,1,.1-.09.11.11,0,0,1,.11.12c0,.07-.07.15-.21.15Zm.11-.11h0v0c0-.08,0-.1,0-.1s0,0,0,.06,0,.09,0,.09" style="fill:#fff"/><path d="M71.52,159.89h.1s0,0,0,.08,0,.09-.14.09-.06,0-.06,0a0,0,0,0,1,0,0s.06,0,.09,0a0,0,0,0,0,0,0s0,0,0,0a.16.16,0,0,0-.1,0l0-.14h.15l0,0h-.13Z" style="fill:#fff"/><path d="M161.35,53.52v0H106.4v0h0l0,42c0,4.28,1.82,8,4.32,9.18l21.14,13.41a2.55,2.55,0,0,0,3.64.2L157,104.7c2.51-1.16,4.32-4.9,4.32-9.18l.05-42ZM159.8,96.08c-.29,3.18-1.36,5.82-3.56,7.32l-20.72,13.17h-.11a2.6,2.6,0,0,1-1.59.56,2.57,2.57,0,0,1-1.63-.58L111.51,103.4c-2.2-1.5-3.28-4.14-3.57-7.32V55H159.8Z" style="fill:#fff"/><path d="M141.27,114.72l.67-.32a3.51,3.51,0,0,0-.67.32" style="fill:#fff"/><path d="M99.82,172.13l-5.18.6,0-.34c1-.18,1.27-.22,1.22-.67a6.78,6.78,0,0,0-.94-1.7l-3.59.42a8.19,8.19,0,0,0-.51,1.81c.06.51.83.46,1.38.43l0,.33-3.25.38,0-.33c.85-.21,1-.7,1.38-1.76L93,163.55l.44-.06,4.37,6.64c.89,1.35,1.2,1.78,2,1.67Zm-5.23-2.6-2-3.07-1.13,3.43Z" style="fill:#fff"/><path d="M190.82,152.44a8.3,8.3,0,0,0-5.36-4.93c-2.52-.55-5.2-.16-6.86,1.75-2.83,2.3-.86,6.12-.78,9.21,0,.64.07,1.11-.56,1.43-11.43-1-22.07-3.89-33.43-5.08-2.61-.45-5.22-.33-7.71-.86l-3.17-.33c-9.86.31-19.71.87-28.94,3.25-2,.64-4.18.8-6.15,1.51-1.42-.24-2.6.8-3.94.4l-2.59.61a2.26,2.26,0,0,1-.88-.05c-1.26-3.26,2.52-5.24,1.34-8.42-1-1.83-3.07-3.58-5.44-3.26A6.58,6.58,0,0,0,80,150.93c-1.81,4,.48,8.1,1.18,12-.16,1.27,1.27,2.7,0,3.73a10.76,10.76,0,0,0-8.91-1.82c-.94.47-2.68-.16-3.15.95,3.39,1.83,7.73,1.59,11.51,1.43.48-.16.79-.24,1.19.08.31,2.06-.4,4.84.86,6.67,1.42,1.91,3.79,2.38,6.07,2.62,7.26-.24,13.72-2.38,20.35-4.05,1-.08,1.81-.63,2.92-.63a57.13,57.13,0,0,1,11.19-1.51,19.77,19.77,0,0,0-3.31,7.14c-1,2.15,1.66,2.47,2.44,3.66-2.44.71-4.17,2.38-6.46,3.33-5-.16-9.31,1.75-14,2.3-.08,1,1.66.72,1.82,1.75-.24.72-1,.8-1.5,1.19-.08.48,0,.56.47.64.48-.56,1.5-.16,2-.72,1.58,0,2.92-.47,4.42-.55,1.34-.56,2.84-.64,4-1.59,1.65-.48,2.68-1.59,4.34-2.07,2.36,0,4.49-.79,6.7-.95V185c-1.82,2.94-3.71,5.95-5.6,8.73a.89.89,0,0,0,.55,1.27,4.11,4.11,0,0,0,3.08-.47c1.65-2.86,3.15-5.56,4.49-8.5.55-2.7,2.52-4.13,4.5-6,.31-.15.79-.63,1.1-.15a35.8,35.8,0,0,0-3.78,5.55c-.64,2.23-.79,5.09,1.18,6.91,1,.8,2.36.56,3.63.64,3.07-1.59,7,.95,9.38-2.07,1.42-.24,1.65,1.43,2.44,2.23,1.34.39,2.76,1.75,4.1.79-.08-.87-1-1.67-1.49-2.46-.95-1.67-2.13-3-3-4.53-.4-1.11-1.11-1.82-1.26-2.94,1.42.48,2.68,1.43,4.26,1.67,1.34.56,3,.48,4.25,1.27a14.42,14.42,0,0,0,4,3c2,.95,4.17,1.11,6.22,1.91.79.08,2,.71,2.53,0a3.35,3.35,0,0,0-1.18-.88c-.24-1,1.41-.47,2-1.27a1.14,1.14,0,0,0-.92-.6c-1.13-.6-3.94-.82-4.68-1.22a18,18,0,0,1-2.76-.88c-4.73,0-7.33-4.29-11.12-5.87.87-.8,2.21-1.43,2.76-2.63a4.4,4.4,0,0,0,.24-4.2c-.71-2.46-3.87-2.15-5.68-3.5l.24-.24a33.12,33.12,0,0,1,8.51,1.12c7.57,1,14.59,3.89,22.48,4,4.33,0,9.77.23,11.9-4,.39-2.46.87-4.92,1.26-7.38,1-4,3.55-7.62,3.15-12m-85.15,36.21-1.1-1c.55-.72,1.73-.32,2.6-.8,2-.63,4.41-1.42,6.7-.95-2.37,1.91-5.44,2.14-8.2,2.78m49.23-1.27a34.42,34.42,0,0,0,8.4,2c-.24,1.07-2.17.06-1.94,1.58-2.44-1-5.28-1.43-7.1-3.34.16-.08.32-.31.64-.24m-74-33.75a5.75,5.75,0,0,1,1.89-4,6.63,6.63,0,0,1,6.23.24,3,3,0,0,1,1.27,1.5A3.55,3.55,0,0,1,89.11,155h-.79a8.85,8.85,0,0,1,.47-3.58c-.07-1-.86-1-1.49-1.42a4.56,4.56,0,0,0-3.55.79,3.59,3.59,0,0,0-1,3.49c.55.88.08,2.07.4,3l-.24.32c-.94-1-2.21-2.15-2-4m3.71,2.27c1.18.87,2.83.47,4.25.71a3,3,0,0,1-.39,2.7c-1.34-.31-3.08-.16-3.79-1.43.16-.55-.23-1.35-.07-2m-.24-2.67c.24-.63,0-1.59.86-1.75.56-.15,1.43-.15,1.5.48a14.67,14.67,0,0,1-.39,2.78,1.82,1.82,0,0,1-2-1.51m37,25.5a8.58,8.58,0,0,1,2.52-7.15,4.51,4.51,0,0,1,3.39.16c-2,.55-4.65,1-5.12,3.65.08,1-.24,1.59.23,2.46.87,1.51,2.84.88,4,2.07a1,1,0,0,1-.71,1c-1.35-.8-3-1.11-4.26-2.14m-2.84,5.47c1.89-.79,3.86-2.46,6-1.74a10.86,10.86,0,0,1-6,1.74m7.49.8a61.45,61.45,0,0,1-3.86,7.46c-.16.4-.79.48-1.26.56,0-1.11,1.1-2,1.57-2.94,1.66-2.14,2.13-4.45,4-6.51.48.47-.47.79-.47,1.43m2-4.61v.32h-.16v-.4h.32a.48.48,0,0,0-.32.08Zm-.71-2.14a18.68,18.68,0,0,1-3.78-1c-.79-.79,0-1.66,0-2.54,1.1-1.74,4.26-2.62,5.76-1a8.42,8.42,0,0,1-2,4.53m1.74,0a13.4,13.4,0,0,1,1.26-3.34,6.7,6.7,0,0,1-1.26,3.34m.87-6.44c-1-.23-1.58-1.42-2.69-1.42a6.41,6.41,0,0,1,3-.09c.4.56-.24,1-.31,1.51m.94,2.39h-.08v-.87h.08Zm.08,3.65c-.08-.32.16-.71.24-1.11.39-.4.79.32.94.55a1.16,1.16,0,0,1-1.18.56m1.18-4.93a8.9,8.9,0,0,1,1.19-2.93,4.71,4.71,0,0,1,2.12.31c.16,1.6,2.13,3.74,0,5.09-.7.32-1.73,1-2.52.32a2.24,2.24,0,0,1-.79-2.79m5.76-2.22c-.16-.71.71-.15,1-.47l2.45.16c-1.27-.16-2.84,2.78-3.47.31m3.94,1c-.94.31-1.65,1.43-2.6,1.66a3.18,3.18,0,0,1,2.6-1.66m-3.31,5.16h-.08v-.24h.08Zm.16,4.6c-.08.16.08.4-.16.56l-1.81-1.43a1.92,1.92,0,0,1,2,.87M136.5,179a.59.59,0,0,1,.71,0Zm-1.11-1.19c.32-.47.71-1.19,1.27-1.19a.4.4,0,0,0,.15.24,4.08,4.08,0,0,1-1.42.95m-1.81-.16h-.31l.47-.48c.24.17-.08.32-.16.48m.24,3c1-1.11,2,.63,2.36,1.51,1.19,1.75,4.26,3.33,3.08,5.72-1.5,1.35-3.87.07-5.52,1.11-.87-.08-2.37.16-2.84-.72a46.45,46.45,0,0,1,2.92-7.62m-2.21,1.51.39-.64a33.2,33.2,0,0,1-2.6,5.72c-.47-1.9,1.5-3.41,2.21-5.08m3.47,9.45c-1.5.08-3.78,1-5.2-.32.07-.64-.63-.95-.56-1.59,1.27-.47,2.37,1,3.55-.08,1.82.08,3.71-.24,5.52.16.87.24,2.21-1.43,2.37.24-.63,2.62-3.79.79-5.68,1.59M139.65,180h.16v.23h-.16Zm.48,5.24c.08.79.86,1.11.39,1.82a2.4,2.4,0,0,1-.39-1.82m2.2,4.76-.39.16c-.39-.32-.24-1.19-.16-1.67.47.4.87.95.55,1.51m3.95,1.91c-.08.24-.48.24-.63.08-2.37-3-3.47-6.2-5-9.53l.31-.08c1.9,3.09,3.39,6.51,5.29,9.53m2.91-7.31a.33.33,0,0,0-.15.32c-2.29.08-3.79-1.27-5.52-2.46l-.08-.4c2.13.16,3.86,1.51,5.75,2.54M147.14,174c1,.24,1,1.27,1.11,2.06a4.67,4.67,0,0,1-5.76,4.21c1.89-.08,3.94-.79,4.73-2.7Zm-1.73-.32c.39,1.11,1.1,2.15.71,3.49-.79,1.52-2.37,1.52-3.79,1.83a2.46,2.46,0,0,1-1.81-.56.82.82,0,0,0-.31-.79c.23-1-1.82-2.06-.4-2.94,1.26-1.19,4.26-3.89,5.6-1m40.05-5.79c-.62.79-.07,2.06-.86,2.77,0,1.43-1.19,2.15-2.21,2.7-9.38,2.07-18.61-1.11-27.68-2.7-12.69-2.77-27.52-3.57-40.45-.63-6.07,1.11-12,2.54-17.82,4.21-3.62.47-7.57,1-11-.08-2.83-1.35-1.65-5-2.52-7.55.16-2-.55-3.57-.63-5.48a4.63,4.63,0,0,1-.31-2.06c1.18.16,2.36,1,3.62,1.35,6.63,1.27,12.54-.88,18.69-2a136.55,136.55,0,0,1,18.21-2.78c7.1-.07,14.35-.47,21.13.72,2.21.08,4.11.63,6.23.79,4.42.56,8.52,1.75,13,2.07a23.44,23.44,0,0,0,2.37.39c7.1,1.12,15.06,3.1,21.84,0,0,2.86-1.18,5.48-1.58,8.27m-2.2-9.7c.07,1.27-1.11,1-1.74,1.43h-1.89a4.35,4.35,0,0,1-.24-2.22,16.43,16.43,0,0,1,3.87.79m-.87-2c.87-.87-.24-5.88,2.21-2.62,0,.63.07,1.59-.56,2.06-.39.32-1,1-1.65.56m6.39-.8a4.52,4.52,0,0,1-3.39,2.7c.07-1.9,1.81-3.25,1.18-5.4a4.74,4.74,0,0,0-5-1.58c-.71.47-.39,1.27-.63,2l-.32,2.62c-1.57,0-1.65-1.43-2.12-2.54A4.57,4.57,0,0,1,181,149.1a5.42,5.42,0,0,1,4.57.16,3.55,3.55,0,0,1,2.6,1.67c1.19,1.11.87,3.1.64,4.52" style="fill:#fff"/></g></svg>
